<?xml version="1.0" encoding="iso-8859-1"?>
<!-- Generator: Adobe Illustrator 30.0.0, SVG Export Plug-In . SVG Version: 9.03 Build 0)  -->
<svg version="1.1" id="&#xB808;&#xC774;&#xC5B4;_1" xmlns="http://www.w3.org/2000/svg" xmlns:xlink="http://www.w3.org/1999/xlink"
	 x="0px" y="0px" viewBox="0 0 89.757 27.582" style="enable-background:new 0 0 89.757 27.582;" xml:space="preserve">
<g>
	<rect x="0.027" y="14.375" style="fill:#FF0000;" width="4.576" height="12.769"/>
	<path style="fill:#FF0000;" d="M46.381,13.959c-0.579-0.054-1.139-0.054-1.718-0.054c-2.858,0.036-4.413,0.687-5.498,1.429
		c-1.049,0.705-2.767,2.315-2.767,5.534c0,0.814,0.054,2.478,1.411,4.123c0.633,0.76,1.266,1.176,1.61,1.374
		c1.031,0.615,2.677,1.212,5.389,1.212c1.809,0,2.93-0.217,3.671-0.434c0.76-0.217,1.411-0.524,2.08-0.977
		c2.586-1.754,2.821-4.323,2.821-5.462c0-1.935-0.741-3.255-1.157-3.87C51.337,15.568,49.763,14.23,46.381,13.959z M46.67,24.448
		c-0.687,0.307-1.501,0.307-1.718,0.307c-0.778,0-2.839-0.163-3.599-2.442c-0.235-0.669-0.253-1.32-0.253-1.555
		c0-1.555,0.687-3.093,2.188-3.726c0.561-0.235,1.049-0.289,1.646-0.289c0.687,0,1.031,0.09,1.356,0.199
		c0.615,0.217,1.049,0.543,1.23,0.723c0.47,0.416,1.158,1.447,1.158,3.075C48.678,22.188,48.099,23.815,46.67,24.448z"/>
	<path style="fill:#FF0000;" d="M27.379,22.387h3.328c-0.036,0.145-0.072,0.307-0.09,0.344c-0.326,0.723-1.555,1.881-3.617,1.881
		c-1.139,0-2.369-0.398-3.111-1.284c-0.814-0.94-0.85-2.134-0.85-2.532c0-1.917,1.067-2.966,1.646-3.382
		c1.013-0.723,2.17-0.741,2.568-0.741c1.574,0,2.369,0.651,2.803,1.121l4.521-0.488c0,0-0.181-0.434-0.326-0.651
		c-0.217-0.362-0.525-0.705-0.85-0.995c-0.217-0.217-0.633-0.579-1.32-0.922c-1.863-0.904-4.431-0.941-4.901-0.941
		c-3.87,0-5.95,1.284-7.144,2.568c-1.592,1.736-1.7,3.708-1.7,4.558c0,1.827,0.633,3.111,1.031,3.69
		c0.181,0.289,0.579,0.814,1.284,1.356c1.935,1.501,4.16,1.555,4.974,1.555c2.17,0,3.418-0.506,4.25-0.959
		c0.669-0.362,0.868-0.561,1.157-0.832v1.411h3.961v-7.65h-7.614V22.387z"/>
	<polygon style="fill:#FF0000;" points="10.935,14.375 6.342,14.375 6.342,27.143 17.802,27.143 17.802,24.033 10.935,24.033 	"/>
	<rect x="85.175" y="14.375" style="fill:#FF0000;" width="4.576" height="12.769"/>
	<path style="fill:#FF0000;" d="M80.075,19.583c-2.279-0.525-4.539-0.832-5.172-1.338c-0.253-0.199-0.289-0.434-0.289-0.579
		c0-0.126,0.036-0.416,0.289-0.615c0.543-0.452,1.646-0.434,1.718-0.434c1.157,0,1.808,0.289,2.098,0.778
		c0.072,0.126,0.108,0.271,0.163,0.416l4.467-0.253c-0.09-0.561-0.271-1.682-1.483-2.568c-0.38-0.289-0.796-0.506-1.248-0.651
		c-1.067-0.362-2.857-0.506-3.979-0.506c-3.274,0-5.046,0.886-5.878,2.225c-0.362,0.561-0.561,1.194-0.561,1.881
		c0,0.326,0.036,1.049,0.506,1.772c0.651,0.995,1.646,1.375,2.731,1.682c0.995,0.271,2.008,0.434,3.002,0.633
		c0.886,0.163,1.646,0.308,1.953,0.434c0.597,0.253,0.723,0.633,0.723,0.922c0,0.452-0.344,0.814-0.723,1.013
		c-0.434,0.217-1.013,0.271-1.483,0.271c-1.194,0-1.827-0.235-2.261-0.561c-0.452-0.326-0.543-0.669-0.579-0.886l-4.503,0.109
		c0.072,0.47,0.163,1.465,1.031,2.423c0.941,1.067,2.641,1.772,5.643,1.772c3.491,0,5.408-0.741,6.475-2.08
		c0.543-0.669,0.85-1.555,0.85-2.423c0-1.194-0.525-1.863-0.85-2.188C82.227,20.307,81.54,19.927,80.075,19.583z"/>
	<path style="fill:#FF0000;" d="M65.033,14.411c-0.434-0.036-0.886-0.036-1.32-0.036h-8.978v12.768h4.558V22.64h3.679
		c1.393,0,3.165-0.018,4.395-0.85c1.555-1.031,1.628-2.731,1.628-3.346c0-1.067-0.253-1.718-0.452-2.134
		C67.819,14.863,66.535,14.501,65.033,14.411z M63.532,19.692c-0.253,0.072-0.506,0.072-1.031,0.072h-3.209v-2.496h3.553
		c0.543,0,1.103,0.054,1.411,0.597c0.054,0.109,0.163,0.326,0.163,0.651C64.419,19.113,64.093,19.547,63.532,19.692z"/>
	<rect x="85.183" y="0.013" style="fill:#FF0000;" width="4.567" height="12.636"/>
	<rect x="0.027" y="0.013" style="fill:#FF0000;" width="4.567" height="12.636"/>
	<polygon style="fill:#FF0000;" points="30.426,12.649 34.993,12.649 34.993,3.371 34.993,0.013 30.426,0.013 22.033,0.013 
		22.033,3.371 30.426,3.371 	"/>
	<polygon style="fill:#FF0000;" points="52.984,9.072 47.173,9.072 47.173,9.072 47.173,0.013 42.605,0.013 42.605,9.072 
		36.715,9.072 36.715,12.649 52.984,12.649 	"/>
	<polygon style="fill:#FF0000;" points="10.096,12.649 10.096,12.649 20.433,12.649 20.433,9.291 11.588,9.291 12.158,8.01 
		16.185,8.01 20.433,8.01 20.433,8.01 20.433,4.652 20.433,4.652 20.433,3.371 20.433,3.371 20.433,0.013 11.782,0.013 
		10.229,3.371 16.185,3.371 16.185,4.652 9.624,4.652 9.624,4.652 9.624,4.652 5.848,12.649 5.848,12.649 5.848,12.649 
		5.848,12.649 	"/>
	<path style="fill:#FF0000;" d="M63.701,12.649h4.286V9.686V6.873V3.962V0.013h-4.286v3.949h-4.68V0.013h-4.286v3.949v2.911v2.813
		v2.963h4.286H63.701z M59.02,6.873h4.68v2.813h-4.68V6.873z"/>
	<polygon style="fill:#FF0000;" points="74.629,0.118 69.491,12.649 74.07,12.649 76.562,5.875 79.002,12.649 83.58,12.649 
		78.477,0.118 	"/>
</g>
</svg>
