<?xml version="1.0" encoding="iso-8859-1"?>
<!-- Generator: Adobe Illustrator 30.0.0, SVG Export Plug-In . SVG Version: 9.03 Build 0)  -->
<svg version="1.1" id="&#xB808;&#xC774;&#xC5B4;_1" xmlns="http://www.w3.org/2000/svg" xmlns:xlink="http://www.w3.org/1999/xlink"
	 x="0px" y="0px" viewBox="0 0 89.757 37.585" style="enable-background:new 0 0 89.757 37.585;" xml:space="preserve">
<g>
	<rect x="97.58" y="1.519" style="fill:#FF0000;" width="12.544" height="35.004"/>
	<path style="fill:#FF0000;" d="M224.656,0.378c-1.587-0.149-3.124-0.149-4.71-0.149c-7.834,0.099-12.098,1.884-15.073,3.917
		c-2.876,1.934-7.586,6.346-7.586,15.172c0,2.231,0.149,6.793,3.867,11.304c1.735,2.082,3.471,3.223,4.413,3.768
		c2.826,1.686,7.338,3.322,14.775,3.322c4.958,0,8.032-0.595,10.065-1.19c2.082-0.595,3.867-1.438,5.702-2.677
		c7.09-4.809,7.735-11.85,7.735-14.974c0-5.305-2.033-8.925-3.173-10.61C238.242,4.791,233.928,1.122,224.656,0.378z M225.45,29.136
		c-1.884,0.843-4.115,0.843-4.71,0.843c-2.132,0-7.784-0.446-9.867-6.693c-0.644-1.835-0.694-3.619-0.694-4.264
		c0-4.264,1.884-8.478,5.999-10.214c1.537-0.644,2.876-0.793,4.512-0.793c1.884,0,2.826,0.248,3.719,0.545
		c1.686,0.595,2.876,1.487,3.372,1.983c1.289,1.14,3.173,3.967,3.173,8.429C230.953,22.938,229.367,27.4,225.45,29.136z"/>
	<path style="fill:#FF0000;" d="M172.564,23.483h9.123c-0.099,0.397-0.198,0.843-0.248,0.942c-0.892,1.983-4.264,5.156-9.916,5.156
		c-3.124,0-6.495-1.091-8.528-3.52c-2.231-2.578-2.33-5.85-2.33-6.941c0-5.256,2.925-8.131,4.512-9.272
		c2.776-1.983,5.95-2.033,7.041-2.033c4.313,0,6.495,1.785,7.685,3.074l12.395-1.339c0,0-0.496-1.19-0.893-1.785
		c-0.595-0.992-1.438-1.934-2.33-2.727c-0.595-0.595-1.735-1.587-3.619-2.529c-5.107-2.479-12.148-2.578-13.437-2.578
		c-10.611,0-16.312,3.52-19.585,7.041c-4.363,4.76-4.661,10.164-4.661,12.494c0,5.008,1.735,8.528,2.826,10.115
		c0.496,0.793,1.587,2.231,3.52,3.719c5.305,4.115,11.404,4.264,13.635,4.264c5.95,0,9.371-1.388,11.652-2.628
		c1.834-0.992,2.38-1.537,3.173-2.281v3.867h10.858V15.55h-20.874v7.933H172.564z"/>
	<polygon style="fill:#FF0000;" points="127.484,1.519 114.89,1.519 114.89,36.523 146.308,36.523 146.308,27.995 127.484,27.995 	
		"/>
	<rect x="331.008" y="1.519" style="fill:#FF0000;" width="12.544" height="35.004"/>
	<path style="fill:#FF0000;" d="M317.026,15.798c-6.247-1.438-12.445-2.281-14.18-3.669c-0.694-0.545-0.793-1.19-0.793-1.587
		c0-0.347,0.099-1.14,0.793-1.686c1.488-1.239,4.512-1.19,4.71-1.19c3.173,0,4.958,0.793,5.751,2.132
		c0.198,0.347,0.298,0.744,0.446,1.141l12.246-0.694c-0.248-1.537-0.744-4.611-4.065-7.041c-1.041-0.793-2.182-1.388-3.421-1.785
		c-2.925-0.992-7.834-1.389-10.908-1.389c-8.974,0-13.833,2.43-16.114,6.099c-0.992,1.537-1.537,3.272-1.537,5.156
		c0,0.892,0.099,2.876,1.388,4.859c1.785,2.727,4.512,3.768,7.487,4.611c2.727,0.744,5.504,1.19,8.23,1.735
		c2.429,0.446,4.512,0.843,5.355,1.19c1.636,0.694,1.983,1.735,1.983,2.529c0,1.24-0.942,2.231-1.983,2.777
		c-1.19,0.595-2.777,0.744-4.066,0.744c-3.272,0-5.008-0.644-6.198-1.537c-1.24-0.892-1.487-1.835-1.587-2.429l-12.346,0.297
		c0.198,1.289,0.446,4.016,2.826,6.644c2.578,2.926,7.239,4.859,15.469,4.859c9.569,0,14.825-2.033,17.75-5.702
		c1.488-1.835,2.331-4.264,2.331-6.644c0-3.272-1.438-5.107-2.331-5.999C322.926,17.782,321.042,16.74,317.026,15.798z"/>
	<path style="fill:#FF0000;" d="M275.791,1.618c-1.19-0.099-2.43-0.099-3.619-0.099h-24.614v35.004h12.495V24.177h10.087
		c3.818,0,8.677-0.05,12.048-2.33c4.264-2.826,4.462-7.487,4.462-9.172c0-2.925-0.694-4.71-1.239-5.85
		C283.427,2.858,279.906,1.866,275.791,1.618z M271.676,16.096c-0.694,0.198-1.388,0.198-2.826,0.198h-8.797V9.452h9.739
		c1.488,0,3.025,0.149,3.867,1.636c0.149,0.298,0.446,0.892,0.446,1.785C274.105,14.509,273.213,15.699,271.676,16.096z"/>
	<rect x="-20.348" y="1.656" style="fill:#FF0000;" width="12.52" height="34.643"/>
	<rect x="-253.798" y="1.656" style="fill:#FF0000;" width="12.52" height="34.643"/>
	<polygon style="fill:#FF0000;" points="-193.472,1.656 -193.472,10.862 -170.462,10.862 -170.462,36.298 -157.942,36.298 
		-157.942,10.862 -157.942,1.656 -170.462,1.656 	"/>
	<polygon style="fill:#FF0000;" points="-124.553,26.49 -124.553,1.656 -137.073,1.656 -137.073,26.491 -153.222,26.491 
		-153.222,36.298 -108.621,36.298 -108.621,26.491 -124.553,26.491 	"/>
	<polygon style="fill:#FF0000;" points="-225.831,10.862 -209.502,10.862 -209.502,14.374 -216.451,14.374 -216.451,14.374 
		-227.49,14.374 -237.841,36.298 -226.197,36.298 -226.197,36.298 -197.857,36.298 -197.857,27.092 -222.105,27.092 -220.544,23.58 
		-209.502,23.58 -197.857,23.58 -197.857,14.374 -197.857,10.862 -197.857,10.862 -197.857,1.656 -221.575,1.656 	"/>
	<path style="fill:#FF0000;" d="M-67.493,1.656h-11.749v10.827h-12.831V1.655h-11.748v34.643l0,0h11.748h12.831l0,0h11.749l0,0l0,0
		v-8.123l0,0v-7.711l0,0v-7.981l0,0L-67.493,1.656L-67.493,1.656z M-79.242,28.175h-12.831v-7.711h12.831V28.175z"/>
	<polygon style="fill:#FF0000;" points="-49.281,1.944 -63.367,36.298 -50.814,36.298 -43.983,17.727 -37.294,36.298 
		-24.742,36.298 -38.733,1.944 	"/>
	<path style="fill:#FF0000;" d="M33.662,7.458l28.244,18.157c-8.42-3.894-17.797-6.067-27.683-6.067
		c-12.521,0-24.228,3.485-34.203,9.538l11.219,7.212c9.866-5.805,21.363-9.134,33.638-9.134c11.558,0,22.425,2.954,31.891,8.144
		l-0.002-0.004c0.224,0.123,0.446,0.249,0.669,0.374c0.029,0.016,0.058,0.032,0.088,0.049l0.001,0.001
		c0.332,0.188,0.663,0.378,0.991,0.571h0.001l0.005-0.003l3.582-2.303l7.632-4.906L44.876,0.249L33.662,7.458z"/>
</g>
</svg>
