<?xml version="1.0" encoding="iso-8859-1"?>
<!-- Generator: Adobe Illustrator 30.0.0, SVG Export Plug-In . SVG Version: 9.03 Build 0)  -->
<svg version="1.1" id="&#xB808;&#xC774;&#xC5B4;_1" xmlns="http://www.w3.org/2000/svg" xmlns:xlink="http://www.w3.org/1999/xlink"
	 x="0px" y="0px" viewBox="0 0 246.052 37.585" style="enable-background:new 0 0 246.052 37.585;" xml:space="preserve">
<g>
	<rect x="0.012" y="1.519" style="fill:#FF0000;" width="12.544" height="35.004"/>
	<path style="fill:#FF0000;" d="M127.088,0.378c-1.587-0.149-3.124-0.149-4.71-0.149c-7.834,0.099-12.098,1.884-15.073,3.917
		c-2.876,1.934-7.586,6.346-7.586,15.172c0,2.231,0.149,6.793,3.867,11.304c1.735,2.082,3.471,3.223,4.413,3.768
		c2.826,1.686,7.338,3.322,14.775,3.322c4.958,0,8.032-0.595,10.065-1.19c2.082-0.595,3.867-1.438,5.702-2.677
		c7.09-4.809,7.735-11.85,7.735-14.974c0-5.305-2.033-8.925-3.173-10.61C140.674,4.791,136.36,1.122,127.088,0.378z M127.882,29.136
		c-1.884,0.843-4.115,0.843-4.71,0.843c-2.132,0-7.784-0.446-9.867-6.693c-0.644-1.835-0.694-3.619-0.694-4.264
		c0-4.264,1.884-8.478,5.999-10.214c1.537-0.644,2.876-0.793,4.512-0.793c1.884,0,2.826,0.248,3.719,0.545
		c1.686,0.595,2.876,1.487,3.372,1.983c1.289,1.14,3.173,3.967,3.173,8.429C133.385,22.938,131.799,27.4,127.882,29.136z"/>
	<path style="fill:#FF0000;" d="M74.996,23.483h9.123c-0.099,0.397-0.198,0.843-0.248,0.942c-0.892,1.983-4.264,5.156-9.916,5.156
		c-3.124,0-6.495-1.091-8.528-3.52c-2.231-2.578-2.33-5.85-2.33-6.941c0-5.256,2.925-8.131,4.512-9.272
		c2.776-1.983,5.95-2.033,7.041-2.033c4.313,0,6.495,1.785,7.685,3.074L94.73,9.55c0,0-0.496-1.19-0.893-1.785
		c-0.595-0.992-1.438-1.934-2.33-2.727c-0.595-0.595-1.735-1.587-3.619-2.529C82.781,0.03,75.74-0.069,74.451-0.069
		c-10.611,0-16.312,3.52-19.585,7.041c-4.363,4.76-4.661,10.164-4.661,12.494c0,5.008,1.735,8.528,2.826,10.115
		c0.496,0.793,1.587,2.231,3.52,3.719c5.305,4.115,11.404,4.264,13.635,4.264c5.95,0,9.371-1.388,11.652-2.628
		c1.834-0.992,2.38-1.537,3.173-2.281v3.867h10.858V15.55H74.995v7.933H74.996z"/>
	<polygon style="fill:#FF0000;" points="29.916,1.519 17.322,1.519 17.322,36.523 48.74,36.523 48.74,27.995 29.916,27.995 	"/>
	<rect x="233.44" y="1.519" style="fill:#FF0000;" width="12.544" height="35.004"/>
	<path style="fill:#FF0000;" d="M219.458,15.798c-6.247-1.438-12.445-2.281-14.18-3.669c-0.694-0.545-0.793-1.19-0.793-1.587
		c0-0.347,0.099-1.14,0.793-1.686c1.488-1.239,4.512-1.19,4.71-1.19c3.173,0,4.958,0.793,5.751,2.132
		c0.198,0.347,0.298,0.744,0.446,1.141l12.246-0.694c-0.248-1.537-0.744-4.611-4.065-7.041c-1.041-0.793-2.182-1.388-3.421-1.785
		c-2.925-0.992-7.834-1.389-10.908-1.389c-8.974,0-13.833,2.43-16.114,6.099c-0.992,1.537-1.537,3.272-1.537,5.156
		c0,0.892,0.099,2.876,1.388,4.859c1.785,2.727,4.512,3.768,7.487,4.611c2.727,0.744,5.504,1.19,8.23,1.735
		c2.429,0.446,4.512,0.843,5.355,1.19c1.636,0.694,1.983,1.735,1.983,2.529c0,1.24-0.942,2.231-1.983,2.777
		c-1.19,0.595-2.777,0.744-4.066,0.744c-3.272,0-5.008-0.644-6.198-1.537c-1.24-0.892-1.487-1.835-1.587-2.429l-12.346,0.297
		c0.198,1.289,0.446,4.016,2.826,6.644c2.578,2.926,7.239,4.859,15.469,4.859c9.569,0,14.825-2.033,17.75-5.702
		c1.488-1.835,2.331-4.264,2.331-6.644c0-3.272-1.438-5.107-2.331-5.999C225.358,17.782,223.474,16.74,219.458,15.798z"/>
	<path style="fill:#FF0000;" d="M178.223,1.618c-1.19-0.099-2.43-0.099-3.619-0.099H149.99v35.004h12.495V24.177h10.087
		c3.818,0,8.677-0.05,12.048-2.33c4.264-2.826,4.462-7.487,4.462-9.172c0-2.925-0.694-4.71-1.239-5.85
		C185.859,2.858,182.338,1.866,178.223,1.618z M174.108,16.096c-0.694,0.198-1.388,0.198-2.826,0.198h-8.797V9.452h9.739
		c1.488,0,3.025,0.149,3.867,1.636c0.149,0.298,0.446,0.892,0.446,1.785C176.537,14.509,175.645,15.699,174.108,16.096z"/>
	<rect x="-117.916" y="1.656" style="fill:#FF0000;" width="12.52" height="34.643"/>
	<rect x="-351.366" y="1.656" style="fill:#FF0000;" width="12.52" height="34.643"/>
	<polygon style="fill:#FF0000;" points="-291.04,1.656 -291.04,10.862 -268.03,10.862 -268.03,36.298 -255.51,36.298 
		-255.51,10.862 -255.51,1.656 -268.03,1.656 	"/>
	<polygon style="fill:#FF0000;" points="-222.121,26.49 -222.121,1.656 -234.641,1.656 -234.641,26.491 -250.79,26.491 
		-250.79,36.298 -206.189,36.298 -206.189,26.491 -222.121,26.491 	"/>
	<polygon style="fill:#FF0000;" points="-323.399,10.862 -307.07,10.862 -307.07,14.374 -314.019,14.374 -314.019,14.374 
		-325.058,14.374 -335.409,36.298 -323.765,36.298 -323.765,36.298 -295.425,36.298 -295.425,27.092 -319.673,27.092 
		-318.112,23.58 -307.07,23.58 -295.425,23.58 -295.425,14.374 -295.425,10.862 -295.425,10.862 -295.425,1.656 -319.143,1.656 	"/>
	<path style="fill:#FF0000;" d="M-165.061,1.656h-11.749v10.827h-12.831V1.655h-11.748v34.643l0,0h11.748h12.831l0,0h11.749l0,0l0,0
		v-8.123l0,0v-7.711l0,0v-7.981l0,0L-165.061,1.656L-165.061,1.656z M-176.81,28.175h-12.831v-7.711h12.831V28.175z"/>
	<polygon style="fill:#FF0000;" points="-146.849,1.944 -160.935,36.298 -148.382,36.298 -141.551,17.727 -134.862,36.298 
		-122.31,36.298 -136.301,1.944 	"/>
	<path style="fill:#FF0000;" d="M-63.906,7.458l28.244,18.157c-8.42-3.894-17.797-6.067-27.683-6.067
		c-12.521,0-24.228,3.485-34.203,9.538l11.219,7.212c9.866-5.805,21.363-9.134,33.638-9.134c11.558,0,22.425,2.954,31.891,8.144
		l-0.002-0.004c0.224,0.123,0.446,0.249,0.669,0.374c0.029,0.016,0.058,0.032,0.088,0.049l0.001,0.001
		c0.332,0.188,0.663,0.378,0.991,0.571h0.001l0.005-0.003l3.582-2.303l7.632-4.906L-52.692,0.249L-63.906,7.458z"/>
</g>
</svg>
