<?xml version="1.0" encoding="iso-8859-1"?>
<!-- Generator: Adobe Illustrator 30.0.0, SVG Export Plug-In . SVG Version: 9.03 Build 0)  -->
<svg version="1.1" id="&#xB808;&#xC774;&#xC5B4;_1" xmlns="http://www.w3.org/2000/svg" xmlns:xlink="http://www.w3.org/1999/xlink"
	 x="0px" y="0px" viewBox="0 0 10.095 357.744" style="enable-background:new 0 0 10.095 357.744;" xml:space="preserve">
<g>
	<g>
		<path style="fill:#FF0000;" d="M1.097,43.438v-2.74l-0.019-0.792h2.009l-0.02,0.792v2.083c0.815-0.024,1.669-0.135,2.291-0.285
			l0.155,1.362c-0.932,0.206-2.174,0.349-3.348,0.373c-0.282,0.008-0.689,0.016-1.087,0.016L1.097,43.438z M9.171,46.605l0.02,0.396
			H1.572l0.02-0.792v-0.871l-0.02-0.792H3.63l-0.02,0.792v0.238h5.58l-0.02,0.396V46.605z M5.755,43.256v-0.515l-0.019-0.404h1.271
			v-0.586H5.736l0.019-0.396V40.84l-0.019-0.404h1.271l-0.019-0.832h2.009l-0.02,0.792v3.928l0.02,0.792H6.988l0.019-0.792v-0.673
			H5.736L5.755,43.256z"/>
	</g>
	<g>
		<path style="fill:#FF0000;" d="M9.404,38.282l0.019,0.396H0.69l0.02-0.396V37.6l-0.02-0.396h3.338v-0.04l-0.02-0.792h2.096
			l-0.02,0.792v0.04h3.338L9.404,37.6V38.282z M1.291,34.124c0-1.307,1.397-2.083,3.766-2.083c2.368,0,3.765,0.776,3.765,2.083
			c0,1.283-1.397,2.043-3.765,2.043C2.689,36.167,1.291,35.407,1.291,34.124z M3.368,34.124c0,0.452,0.583,0.649,1.689,0.649
			c1.106,0,1.688-0.198,1.688-0.649c0-0.459-0.583-0.657-1.688-0.657C3.95,33.467,3.368,33.665,3.368,34.124z"/>
	</g>
	<g>
		<path style="fill:#FF0000;" d="M1.437,27.867l-0.844-1.394c0.155-0.04,0.301-0.095,0.446-0.159
			c1.068-0.491,1.621-1.18,1.621-2.011c0-0.095-0.01-0.214-0.019-0.317h2.038c-0.01,0.103-0.019,0.222-0.019,0.317
			c0,0.8,0.514,1.457,1.504,1.924c0.117,0.055,0.282,0.111,0.466,0.166l-0.747,1.394c-1.019-0.349-1.815-0.911-2.193-1.536
			C3.339,26.877,2.514,27.471,1.437,27.867z M8.88,30.489L8.9,31.28H6.959v-0.198H3.475v0.198H1.534l0.02-0.792v-1.774l-0.02-0.792
			h1.941v0.499h3.484v-0.499H8.9l-0.02,0.792V30.489z M6.959,29.467H3.475v0.459h3.484V29.467z M6.949,26.838v-2.281l-0.02-0.792
			h1.96l-0.02,0.792v2.281l0.02,0.792h-1.96L6.949,26.838z"/>
	</g>
	<g>
		<path style="fill:#FF0000;" d="M0.932,19.322c0-2.075,0.912-3.152,2.668-3.152c1.757,0,2.669,1.077,2.669,3.152
			s-0.912,3.152-2.669,3.152C1.844,22.473,0.932,21.396,0.932,19.322z M4.212,20.486c0.136-0.325,0.204-0.8,0.204-1.188
			s-0.068-0.863-0.204-1.188c-0.106-0.261-0.262-0.372-0.562-0.372c-0.311,0-0.456,0.111-0.573,0.372
			c-0.136,0.309-0.194,0.784-0.194,1.188c0,0.412,0.058,0.887,0.194,1.188c0.117,0.261,0.272,0.372,0.573,0.372
			C3.941,20.858,4.106,20.747,4.212,20.486z M7.192,22.45v-5.812l-0.02-0.792h1.96l-0.02,0.792v5.812l0.02,0.792h-1.96L7.192,22.45z
			"/>
	</g>
	<g>
		<path style="fill:#FF0000;" d="M1.427,12.834l-0.834-1.401c0.155-0.016,0.311-0.048,0.456-0.095
			c0.815-0.269,1.349-0.76,1.572-1.449H0.883l0.02-0.396V9.033l-0.02-0.396h1.747V8.518L2.601,7.964H4.63L4.6,8.518v0.119h1.747
			l-0.02,0.396v0.459l0.01,0.229h0.66v-0.99L6.978,7.925h2.009l-0.02,0.808v3.754l0.02,0.792H6.978l0.019-0.792v-1.37H6.144V9.888
			H4.6c0.194,0.721,0.689,1.22,1.446,1.465c0.194,0.063,0.359,0.103,0.485,0.119l-0.834,1.322c-1.009-0.237-1.708-0.752-2.057-1.378
			C3.3,12.051,2.485,12.581,1.427,12.834z M9.162,14.925l0.019,0.396H1.572l0.02-0.792v-0.832l-0.02-0.792H3.63l-0.02,0.792v0.159
			h5.57l-0.019,0.396V14.925z"/>
	</g>
	<g>
		<path style="fill:#FF0000;" d="M0.932,3.481c0-2.075,0.912-3.152,2.668-3.152c1.757,0,2.669,1.077,2.669,3.152
			S5.358,6.633,3.601,6.633C1.844,6.633,0.932,5.556,0.932,3.481z M4.212,4.645c0.136-0.325,0.204-0.8,0.204-1.188
			c0-0.388-0.068-0.863-0.204-1.188C4.106,2.008,3.95,1.897,3.65,1.897c-0.311,0-0.456,0.111-0.573,0.372
			C2.941,2.578,2.883,3.054,2.883,3.457c0,0.412,0.058,0.887,0.194,1.188C3.194,4.907,3.349,5.017,3.65,5.017
			C3.941,5.017,4.106,4.907,4.212,4.645z M7.192,6.609V0.797l-0.02-0.792h1.96l-0.02,0.792v5.812l0.02,0.792h-1.96L7.192,6.609z"/>
	</g>
	<g>
		<path style="fill:#FF0000;" d="M2.912,70.557c-0.718,0.024-1.378,0.04-1.931,0.048l-0.243-1.148
			c2.834-0.071,5.037-0.127,5.502-0.15l0.146,1.093c-0.514,0.032-1.067,0.055-1.611,0.079v0.491H2.912V70.557z M1.369,67.975
			c0-0.736,0.912-1.172,2.446-1.172c1.543,0,2.455,0.436,2.455,1.172s-0.912,1.172-2.455,1.172
			C2.281,69.147,1.369,68.712,1.369,67.975z M9.404,73.82l0.019,0.396H1.786l0.019-0.792v-0.348l-0.019-0.8h5.521v-0.19H1.786
			l0.019-0.396v-0.095l-0.019-0.396H9.23l-0.02,0.792v0.269l0.02,0.792H3.805v0.198h5.619l-0.019,0.396V73.82z M3.271,68.015
			c0,0.143,0.185,0.222,0.544,0.222c0.359,0,0.543-0.079,0.543-0.222s-0.184-0.222-0.543-0.222
			C3.455,67.793,3.271,67.872,3.271,68.015z M6.59,70.241v-0.476l-0.02-0.404h0.718v-1.829l-0.02-0.792h1.96l-0.02,0.792v2.645
			l0.02,0.792h-1.96l0.01-0.333H6.57L6.59,70.241z"/>
	</g>
	<g>
		<path style="fill:#FF0000;" d="M0.932,62.297c0-2.075,0.912-3.152,2.668-3.152c1.757,0,2.669,1.077,2.669,3.152
			s-0.912,3.152-2.669,3.152C1.844,65.449,0.932,64.371,0.932,62.297z M4.212,63.461c0.136-0.325,0.204-0.8,0.204-1.188
			c0-0.388-0.068-0.863-0.204-1.188c-0.106-0.261-0.262-0.372-0.562-0.372c-0.311,0-0.456,0.111-0.573,0.372
			c-0.136,0.309-0.194,0.784-0.194,1.188c0,0.412,0.058,0.887,0.194,1.188c0.117,0.261,0.272,0.372,0.573,0.372
			C3.941,63.833,4.106,63.722,4.212,63.461z M7.192,65.425v-5.812l-0.02-0.792h1.96l-0.02,0.792v5.812l0.02,0.792h-1.96
			L7.192,65.425z"/>
	</g>
	<g>
		<path style="fill:#FF0000;" d="M1.437,55.002l-0.844-1.394c0.155-0.04,0.301-0.095,0.446-0.159
			c1.068-0.491,1.621-1.18,1.621-2.011c0-0.095-0.01-0.214-0.019-0.317h2.038c-0.01,0.103-0.019,0.222-0.019,0.317
			c0,0.8,0.514,1.457,1.504,1.924c0.117,0.055,0.282,0.111,0.466,0.166l-0.747,1.394c-1.019-0.349-1.815-0.911-2.193-1.536
			C3.339,54.012,2.514,54.606,1.437,55.002z M8.88,57.623l0.02,0.792H6.959v-0.198H3.475v0.198H1.534l0.02-0.792v-1.774l-0.02-0.792
			h1.941v0.499h3.484v-0.499H8.9l-0.02,0.792V57.623z M6.959,56.601H3.475v0.459h3.484V56.601z M6.949,53.972v-2.281L6.929,50.9
			h1.96l-0.02,0.792v2.281l0.02,0.792h-1.96L6.949,53.972z"/>
	</g>
	<g>
		<path style="fill:#FF0000;" d="M0.835,87.88c0-1.069,1.067-1.782,2.669-1.782c1.611,0,2.678,0.712,2.678,1.782
			s-1.067,1.782-2.678,1.782C1.903,89.661,0.835,88.949,0.835,87.88z M1.631,92.639v-0.618l-0.02-0.8h5.396v-0.301H1.611l0.02-0.396
			V90.35l-0.02-0.396h7.317l-0.02,0.792v0.539l0.02,0.792H3.63v0.309h5.551l-0.019,0.396v0.253l0.019,0.396H1.611L1.631,92.639z
			 M4.271,87.88c0-0.325-0.282-0.515-0.767-0.515c-0.485,0-0.767,0.19-0.767,0.515s0.282,0.515,0.767,0.515
			C3.989,88.394,4.271,88.204,4.271,87.88z M7.027,88.941v-2.193l-0.02-0.792h1.902l-0.02,0.792v2.193l0.02,0.792H7.007
			L7.027,88.941z"/>
	</g>
	<g>
		<path style="fill:#FF0000;" d="M1.33,82.256l-0.835-1.401c0.155-0.04,0.301-0.095,0.437-0.159c0.99-0.459,1.582-1.251,1.582-2.122
			c0-0.095-0.01-0.214-0.02-0.317h2.038c-0.01,0.103-0.02,0.222-0.02,0.317c0,0.879,0.544,1.631,1.466,2.027
			c0.155,0.071,0.33,0.134,0.456,0.174l-0.738,1.401c-1.019-0.364-1.747-0.903-2.135-1.583C3.203,81.266,2.436,81.844,1.33,82.256z
			 M8.589,83.222v1.537l0.02,0.792H6.668v-0.198h-3.29v0.198H1.437l0.02-0.792v-1.537l-0.02-0.792h7.172L8.589,83.222z
			 M6.668,83.618h-3.29v0.499h3.29V83.618z M8.589,80.981v0.443l0.02,0.792h-1.96l0.02-0.792v-2.597l-0.02-0.792h1.96l-0.02,0.792
			v0.76h0.98L9.55,79.983v0.602l0.019,0.396H8.589z"/>
	</g>
	<g>
		<path style="fill:#FF0000;" d="M1.097,108.686v-2.502l-0.019-0.792h2.009l-0.02,0.792v1.845c0.679-0.008,1.524-0.111,2.281-0.27
			l0.204,1.362c-0.922,0.19-2.145,0.317-3.29,0.349c-0.359,0.016-0.796,0.023-1.184,0.023L1.097,108.686z M8.967,110.611v1.283
			l0.02,0.792h-1.96l0.02-0.792v-0.769H1.582l0.02-0.396v-0.515l-0.02-0.396h7.405L8.967,110.611z M8.967,108.797l0.02,0.792h-1.96
			l0.02-0.713h-1.31l0.019-0.396v-0.436l-0.019-0.404h1.31v-0.459h-1.31l0.019-0.396v-0.436l-0.019-0.404h1.31l-0.02-0.776h1.96
			l-0.02,0.808V108.797z"/>
	</g>
	<g>
		<path style="fill:#FF0000;" d="M6.085,102.113c0.223,0.167,0.388,0.253,0.534,0.317l-1.009,1.402
			c-0.854-0.452-1.649-1.125-1.989-1.822c-0.281,0.697-0.971,1.362-2.009,1.893l-0.922-1.441c0.165-0.056,0.339-0.159,0.524-0.293
			c0.844-0.626,1.31-1.616,1.436-3.097H1.136l0.02-0.396v-0.618l-0.02-0.396h5.037l-0.02,0.396v0.618l0.02,0.396H4.571
			C4.717,100.489,5.202,101.455,6.085,102.113z M9.113,103.855l0.02,0.792h-1.96l0.02-0.792v-2.621H5.833l0.019-0.396v-0.729
			l-0.019-0.396h1.358v-1.671l-0.02-0.792h1.96l-0.02,0.792V103.855z"/>
	</g>
	<g>
		<path style="fill:#FF0000;" d="M6.619,137.389l-0.815,1.441c-0.98-0.491-1.728-1.18-2.086-1.909
			c-0.369,0.76-1.145,1.489-2.106,1.98L0.69,137.46c0.252-0.119,0.553-0.309,0.776-0.507c0.834-0.736,1.271-1.996,1.271-3.659
			c0-0.198-0.009-0.404-0.019-0.633h1.979c-0.02,0.229-0.02,0.436-0.02,0.633c0,1.631,0.417,2.867,1.204,3.595
			C6.105,137.096,6.376,137.27,6.619,137.389z M9.113,138.909l0.02,0.792h-1.96l0.02-0.792v-5.812l-0.02-0.792h1.96l-0.02,0.792
			V138.909z"/>
	</g>
	<g>
		<path style="fill:#FF0000;" d="M9.404,128.068l0.019,0.396H0.69l0.02-0.396v-0.476l-0.02-0.412h2.979v-0.99h1.912v0.99h3.843
			l-0.019,0.412V128.068z M1.495,125.462v-0.515l-0.019-0.396h7.336c0,0.071-0.078,0.689-0.097,0.792
			c-0.106,0.602-0.194,1.053-0.359,1.608l-1.931-0.159c0.078-0.293,0.155-0.697,0.194-0.934H1.476L1.495,125.462z M8.609,129.533
			v1.576l0.02,0.792H6.59v-0.198H3.513v0.198H1.476l0.019-0.792v-1.576l-0.019-0.792h2.038v0.459H6.59v-0.459h2.038L8.609,129.533z
			 M6.59,130.245H3.513v0.301H6.59V130.245z"/>
	</g>
	<g>
		<path style="fill:#FF0000;" d="M0.835,118.389c0-1.069,1.067-1.782,2.669-1.782c1.611,0,2.678,0.712,2.678,1.782
			s-1.067,1.782-2.678,1.782C1.903,120.171,0.835,119.459,0.835,118.389z M1.631,123.149v-0.618l-0.02-0.8h5.396v-0.301H1.611
			l0.02-0.396v-0.174l-0.02-0.396h7.317l-0.02,0.792v0.539l0.02,0.792H3.63v0.309h5.551l-0.019,0.396v0.253l0.019,0.396H1.611
			L1.631,123.149z M4.271,118.389c0-0.325-0.282-0.515-0.767-0.515c-0.485,0-0.767,0.19-0.767,0.515s0.282,0.515,0.767,0.515
			C3.989,118.904,4.271,118.714,4.271,118.389z M7.027,119.45v-2.193l-0.02-0.792h1.902l-0.02,0.792v2.193l0.02,0.792H7.007
			L7.027,119.45z"/>
	</g>
	<g>
		<path style="fill:#FF0000;" d="M6.017,171.241v0.752h2.611l-0.02,0.792v1.299l0.02,0.792H6.6l0.019-0.792v-0.792H1.427l0.02-0.396
			v-0.507l-0.02-0.396h2.679v-0.752H0.69l0.02-0.396v-0.515l-0.02-0.396h5.687c0.097-0.356,0.214-0.784,0.243-1.061H1.476
			l0.019-0.396v-0.555l-0.019-0.396h7.336c0,0.071-0.078,0.689-0.097,0.792c-0.078,0.515-0.155,1.03-0.349,1.616h1.058l-0.019,0.396
			v0.515l0.019,0.396H6.017z"/>
	</g>
	<g>
		<path style="fill:#FF0000;" d="M1.097,162.972v-2.399l-0.019-0.792h5.017l-0.02,0.792v2.399l0.02,0.792H1.078L1.097,162.972z
			 M1.495,166.045v-1.029l-0.019-0.792h2.057l-0.02,0.792v0.356h5.667l-0.019,0.396v0.673l0.019,0.396H1.476L1.495,166.045z
			 M4.241,162.339v-1.085H2.989v1.085H4.241z M6.91,164.002v-3.754l-0.02-0.808H8.9l-0.02,0.808v3.754l0.02,0.792H6.891
			L6.91,164.002z"/>
	</g>
	<g>
		<path style="fill:#FF0000;" d="M0.709,152.946v-0.38l-0.02-0.396h1.776v-0.119l-0.029-0.396h2.028l-0.029,0.396v0.119h1.776
			l-0.02,0.396v0.38l0.02,0.396H0.69L0.709,152.946z M3.445,156.414c-1.718,0-2.62-0.499-2.62-1.449c0-0.958,0.902-1.457,2.62-1.457
			c1.728,0,2.63,0.499,2.63,1.457C6.075,155.915,5.173,156.414,3.445,156.414z M8.88,157.887v0.633l0.02,0.396H1.379l0.02-0.792
			v-0.712l-0.02-0.792h2.057l-0.019,0.792v0.079H8.9L8.88,157.887z M3.445,155.377c0.534,0,0.815-0.134,0.815-0.388
			c0-0.262-0.282-0.396-0.815-0.396s-0.805,0.134-0.805,0.396C2.64,155.242,2.912,155.377,3.445,155.377z M9.55,154.759l0.019,0.396
			h-0.98v0.998l0.02,0.792h-1.96l0.02-0.792v-3.841l-0.02-0.792h1.96l-0.02,0.792v1.291h0.98l-0.019,0.396V154.759z"/>
	</g>
	<g>
		<path style="fill:#FF0000;" d="M4.523,148.146l0.388,1.426c-0.737,0.198-1.834,0.372-2.756,0.443
			c-0.524,0.04-0.961,0.063-1.174,0.063L1,149.27v-4.442l-0.02-0.792h3.532l-0.019,0.396v0.736l0.019,0.396H2.97v2.859
			c0.398-0.032,0.874-0.111,1.204-0.182C4.319,148.209,4.436,148.178,4.523,148.146z M9.113,150.284l0.02,0.792H7.24l0.02-0.792
			v-2.304H6.784v2.067l0.02,0.792H5.008l0.02-0.792v-5.615l-0.02-0.792h1.795l-0.02,0.792v2.027h0.476v-2.067L7.24,143.6h1.893
			l-0.02,0.792V150.284z"/>
	</g>
	<g>
		<path style="fill:#FF0000;" d="M6.017,190.48v0.206h2.611l-0.02,0.792v0.483l0.02,0.792H3.397v0.253H8.88l-0.02,0.396v0.253
			l0.02,0.396H1.476l0.019-0.792v-0.562l-0.019-0.8h5.328v-0.246H1.476l0.019-0.396v-0.174l-0.019-0.396h2.63v-0.206H0.69
			l0.02-0.396v-0.277l-0.02-0.396h8.734l-0.019,0.396v0.277l0.019,0.396H6.017z M1.437,187.953c0-0.903,1.242-1.37,3.62-1.37
			c2.377,0,3.62,0.467,3.62,1.37c0,0.847-1.242,1.291-3.62,1.291C2.679,189.244,1.437,188.801,1.437,187.953z M3.465,187.953
			c0,0.095,0.078,0.135,0.185,0.158c0.378,0.087,0.99,0.127,1.407,0.127c0.417,0,1.028-0.04,1.407-0.127
			c0.107-0.023,0.185-0.063,0.185-0.158c0-0.111-0.078-0.15-0.185-0.174c-0.378-0.087-0.99-0.126-1.407-0.126
			c-0.417,0-1.029,0.04-1.407,0.126C3.543,187.803,3.465,187.843,3.465,187.953z"/>
	</g>
	<g>
		<path style="fill:#FF0000;" d="M6.522,183.74l-0.903,1.441c-0.932-0.404-1.679-1.093-2.047-1.9
			c-0.388,0.839-1.146,1.56-2.077,1.972l-0.902-1.441c0.252-0.119,0.543-0.293,0.767-0.491c0.825-0.721,1.232-1.988,1.232-3.675
			c0-0.198-0.01-0.404-0.019-0.633h1.979c-0.02,0.229-0.02,0.436-0.02,0.633c0,1.616,0.437,2.851,1.262,3.611
			C6.017,183.463,6.279,183.621,6.522,183.74z M9.113,185.26l0.02,0.792h-1.96l0.02-0.792v-2.74H5.736l0.019-0.396v-0.729L5.736,181
			h1.456v-1.552l-0.02-0.792h1.96l-0.02,0.792V185.26z"/>
	</g>
	<g>
		<path style="fill:#FF0000;" d="M6.037,218.327v1.988l0.02,0.792h-2l0.02-0.792v-1.988H0.69l0.02-0.396v-0.602l-0.02-0.396h5.463
			c0.155-0.467,0.33-1.331,0.369-1.631H1.379l0.02-0.396v-0.634l-0.02-0.396h7.336c0,0.071-0.087,0.689-0.097,0.792
			c-0.097,0.681-0.292,1.624-0.485,2.265h1.291l-0.019,0.396v0.602l0.019,0.396H6.037z"/>
	</g>
	<g>
		<path style="fill:#FF0000;" d="M9.404,212.387l0.019,0.396H0.69l0.02-0.396v-0.681l-0.02-0.396h3.338l-0.02-0.792h2.096
			l-0.02,0.792h3.338l-0.019,0.396V212.387z M1.233,207.034v-0.491l-0.02-0.396H8.9l-0.02,0.396v0.491l0.02,0.396H1.214
			L1.233,207.034z M1.233,209.885v-0.491l-0.02-0.396h1.3l-0.262-1.378l1.902-0.047l0.223,1.425h1.369l0.213-1.425l1.902,0.047
			l-0.262,1.378h1.3l-0.02,0.396v0.491l0.02,0.396H1.214L1.233,209.885z"/>
	</g>
	<g>
		<path style="fill:#FF0000;" d="M5.901,199.098v4.355l0.019,0.792H0.981L1,203.453v-4.355l-0.02-0.792H5.92L5.901,199.098z
			 M4.106,199.81H2.883v2.867h1.223V199.81z M8.628,202.289v2.186l0.019,0.792H6.784l0.02-0.792v-5.812l-0.02-0.792h1.863
			l-0.019,0.792v2.106h0.99l-0.02,0.396v0.729l0.02,0.396H8.628z"/>
	</g>
	<g>
		<path style="fill:#FF0000;" d="M0.554,275.068c0.223,0,0.466-0.016,0.708-0.04c1.32-0.143,2.174-0.483,2.484-0.998H1.097
			l0.02-0.396v-0.53l-0.02-0.396h4.979c0,2.099-1.553,3.35-4.542,3.643L0.554,275.068z M1.631,279.209v-0.625l-0.02-0.792h5.386
			v-0.261H1.611l0.02-0.396v-0.214l-0.02-0.396h7.308l-0.02,0.792v0.578l0.02,0.792H3.63v0.269h5.541l-0.019,0.396v0.253
			l0.019,0.396h-7.56L1.631,279.209z M6.959,275.511v-2.193l-0.02-0.792H8.9l-0.02,0.792v2.193l0.02,0.792h-1.96L6.959,275.511z"/>
	</g>
	<g>
		<path style="fill:#FF0000;" d="M1.437,268.708l-0.844-1.394c0.155-0.04,0.301-0.095,0.446-0.159
			c1.068-0.491,1.621-1.18,1.621-2.011c0-0.095-0.01-0.214-0.019-0.317h2.038c-0.01,0.103-0.019,0.222-0.019,0.317
			c0,0.8,0.514,1.457,1.504,1.924c0.117,0.055,0.282,0.111,0.466,0.166l-0.747,1.394c-1.019-0.349-1.815-0.911-2.193-1.536
			C3.339,267.718,2.514,268.312,1.437,268.708z M8.88,271.329l0.02,0.792H6.959v-0.198H3.475v0.198H1.534l0.02-0.792v-1.774
			l-0.02-0.792h1.941v0.499h3.484v-0.499H8.9l-0.02,0.792V271.329z M6.959,270.307H3.475v0.459h3.484V270.307z M6.949,267.678
			v-2.281l-0.02-0.792h1.96l-0.02,0.792v2.281l0.02,0.792h-1.96L6.949,267.678z"/>
	</g>
	<g>
		<path style="fill:#FF0000;" d="M0.932,260.162c0-2.075,0.912-3.152,2.668-3.152c1.757,0,2.669,1.077,2.669,3.152
			s-0.912,3.152-2.669,3.152C1.844,263.314,0.932,262.237,0.932,260.162z M4.212,261.326c0.136-0.325,0.204-0.8,0.204-1.188
			s-0.068-0.863-0.204-1.188c-0.106-0.261-0.262-0.372-0.562-0.372c-0.311,0-0.456,0.111-0.573,0.372
			c-0.136,0.309-0.194,0.784-0.194,1.188c0,0.412,0.058,0.887,0.194,1.188c0.117,0.261,0.272,0.372,0.573,0.372
			C3.941,261.699,4.106,261.588,4.212,261.326z M7.192,263.29v-5.812l-0.02-0.792h1.96l-0.02,0.792v5.812l0.02,0.792h-1.96
			L7.192,263.29z"/>
	</g>
	<g>
		<path style="fill:#FF0000;" d="M9.404,255.481l0.019,0.396H0.69l0.02-0.396v-0.602l-0.02-0.396h3.387v-0.317l-0.02-0.396h2
			l-0.02,0.396v0.317h3.387l-0.019,0.396V255.481z M1.398,252.804v-1.235l-0.02-0.8h5.425v-0.364H1.379l0.02-0.396v-0.491
			l-0.02-0.396h7.346l-0.02,0.792v1.235l0.02,0.792H3.349v0.372h5.435l-0.02,0.396v0.491l0.02,0.396H1.379L1.398,252.804z"/>
	</g>
	<g>
		<path style="fill:#FF0000;" d="M8.967,244.037l0.02,0.792h-1.96l0.02-0.792v-0.158H5.891l0.019-0.396v-0.61l-0.019-0.388
			c-0.573,1.346-2.048,2.17-4.357,2.439l-1.039-1.243c0.175,0,0.378-0.008,0.592-0.032c0.864-0.095,1.504-0.222,1.951-0.404
			l-1.902,0.182l-0.291-0.99l3.076-0.071c0.02-0.056,0.039-0.111,0.049-0.174H1.097l0.02-0.396v-0.333l-0.02-0.396h5.066
			c0,0.522-0.087,0.99-0.262,1.41h1.145v-0.839l-0.02-0.792h1.96l-0.02,0.792V244.037z M8.967,245.875v1.695l0.02,0.792H7.046
			v-0.198H3.572v0.198H1.631l0.019-0.792v-1.695l-0.019-0.792h1.96l-0.01,0.459h3.455l-0.01-0.459h1.96L8.967,245.875z
			 M7.046,246.587H3.572v0.42h3.474V246.587z"/>
	</g>
	<g>
		<path style="fill:#FF0000;" d="M0.612,239.444v-0.681l-0.02-0.396h8.928l-0.02,0.396v0.681l0.02,0.396H0.592L0.612,239.444z
			 M1.34,236.545v-2.392l-0.019-0.792h7.472l-0.019,0.396v0.562l0.019,0.396H3.455v1.244H8.89l-0.02,0.396v0.586l0.02,0.396H1.32
			L1.34,236.545z"/>
	</g>
	<g>
		<path style="fill:#FF0000;" d="M2.912,228.823c-0.718,0.024-1.378,0.04-1.931,0.048l-0.243-1.148
			c2.834-0.071,5.037-0.127,5.502-0.15l0.146,1.093c-0.514,0.032-1.067,0.055-1.611,0.079v0.491H2.912V228.823z M1.369,226.241
			c0-0.736,0.912-1.172,2.446-1.172c1.543,0,2.455,0.436,2.455,1.172s-0.912,1.172-2.455,1.172
			C2.281,227.413,1.369,226.977,1.369,226.241z M9.404,232.085l0.019,0.396H1.786l0.019-0.792v-0.348l-0.019-0.8h5.521v-0.19H1.786
			l0.019-0.396v-0.095l-0.019-0.396H9.23l-0.02,0.792v0.269l0.02,0.792H3.805v0.198h5.619l-0.019,0.396V232.085z M3.271,226.281
			c0,0.143,0.185,0.222,0.544,0.222c0.359,0,0.543-0.079,0.543-0.222s-0.184-0.222-0.543-0.222
			C3.455,226.059,3.271,226.138,3.271,226.281z M6.59,228.506v-0.476l-0.02-0.404h0.718v-1.829l-0.02-0.792h1.96l-0.02,0.792v2.645
			l0.02,0.792h-1.96l0.01-0.333H6.57L6.59,228.506z"/>
	</g>
	<g>
		<path style="fill:#FF0000;" d="M1.437,327.325l-0.844-1.323c0.136-0.008,0.262-0.024,0.437-0.055
			c0.903-0.167,1.417-0.42,1.65-0.816H0.893l0.029-0.396v-0.419l-0.029-0.396h1.786l-0.029-0.459h2.028l-0.029,0.459h1.795
			l-0.02,0.396v0.419l0.02,0.396H4.659c0.233,0.356,0.737,0.594,1.582,0.768c0.204,0.04,0.32,0.056,0.485,0.063l-0.796,1.283
			c-1.009-0.183-1.834-0.578-2.212-1.069C3.368,326.668,2.514,327.095,1.437,327.325z M9.162,330.501l0.019,0.396H1.611l0.02-0.792
			v-0.602l-0.02-0.8h5.386v-0.285H1.611l0.02-0.396v-0.174l-0.02-0.396h7.308l-0.02,0.792v0.523l0.02,0.792H3.63v0.293h5.551
			l-0.019,0.396V330.501z M7.017,326.486v-2.272l-0.02-0.792H8.9l-0.02,0.792v2.272l0.02,0.792H6.997L7.017,326.486z"/>
	</g>
	<g>
		<path style="fill:#FF0000;" d="M6.619,320.585l-0.815,1.441c-0.98-0.491-1.728-1.18-2.086-1.909
			c-0.369,0.76-1.145,1.489-2.106,1.98l-0.922-1.441c0.252-0.119,0.553-0.309,0.776-0.507c0.834-0.736,1.271-1.996,1.271-3.659
			c0-0.198-0.009-0.404-0.019-0.633h1.979c-0.02,0.229-0.02,0.436-0.02,0.633c0,1.631,0.417,2.867,1.204,3.595
			C6.105,320.292,6.376,320.467,6.619,320.585z M9.113,322.106l0.02,0.792h-1.96l0.02-0.792v-5.812l-0.02-0.792h1.96l-0.02,0.792
			V322.106z"/>
	</g>
	<g>
		<path style="fill:#FF0000;" d="M6.066,311.794l0.389,1.584c-1.116,0.301-2.795,0.57-4.192,0.673
			c-0.476,0.031-0.99,0.047-1.281,0.047L1,313.291v-4.482l-0.02-0.792h4.6l-0.02,0.396v0.736l0.02,0.396H3.067v2.804
			c0.912-0.08,1.815-0.222,2.436-0.373C5.746,311.913,5.949,311.85,6.066,311.794z M8.628,311.961v2.225l0.019,0.792h-1.96
			l0.02-0.792v-5.812l-0.02-0.792h1.96l-0.019,0.792v2.067h0.99l-0.02,0.396v0.729l0.02,0.396H8.628z"/>
	</g>
	<g>
		<path style="fill:#FF0000;" d="M0.835,301.586c0-1.069,1.067-1.782,2.669-1.782c1.611,0,2.678,0.712,2.678,1.782
			s-1.067,1.782-2.678,1.782C1.903,303.367,0.835,302.655,0.835,301.586z M1.631,306.345v-0.618l-0.02-0.8h5.396v-0.301H1.611
			l0.02-0.396v-0.174l-0.02-0.396h7.317l-0.02,0.792v0.539l0.02,0.792H3.63v0.309h5.551l-0.019,0.396v0.253l0.019,0.396H1.611
			L1.631,306.345z M4.271,301.586c0-0.325-0.282-0.515-0.767-0.515c-0.485,0-0.767,0.19-0.767,0.515s0.282,0.515,0.767,0.515
			C3.989,302.1,4.271,301.91,4.271,301.586z M7.027,302.647v-2.193l-0.02-0.792h1.902l-0.02,0.792v2.193l0.02,0.792H7.007
			L7.027,302.647z"/>
	</g>
	<g>
		<path style="fill:#FF0000;" d="M1.437,295.843l-0.844-1.394c0.155-0.04,0.301-0.095,0.446-0.159
			c1.068-0.491,1.621-1.18,1.621-2.011c0-0.095-0.01-0.214-0.019-0.317h2.038c-0.01,0.103-0.019,0.222-0.019,0.317
			c0,0.8,0.514,1.457,1.504,1.924c0.117,0.055,0.282,0.111,0.466,0.166l-0.747,1.394c-1.019-0.349-1.815-0.911-2.193-1.536
			C3.339,294.853,2.514,295.447,1.437,295.843z M8.88,298.465l0.02,0.792H6.959v-0.198H3.475v0.198H1.534l0.02-0.792v-1.774
			l-0.02-0.792h1.941v0.499h3.484v-0.499H8.9l-0.02,0.792V298.465z M6.959,297.443H3.475v0.459h3.484V297.443z M6.949,294.814
			v-2.281l-0.02-0.792h1.96l-0.02,0.792v2.281l0.02,0.792h-1.96L6.949,294.814z"/>
	</g>
	<g>
		<path style="fill:#FF0000;" d="M6.425,288.905l-0.806,1.441c-0.932-0.404-1.679-1.093-2.047-1.9
			c-0.398,0.839-1.155,1.56-2.077,1.972l-0.902-1.441c0.252-0.119,0.543-0.293,0.767-0.491c0.825-0.721,1.232-1.988,1.232-3.675
			c0-0.198-0.01-0.404-0.019-0.633h1.979c-0.02,0.229-0.02,0.436-0.02,0.633c0,1.687,0.34,2.835,1.165,3.611
			C5.92,288.628,6.182,288.786,6.425,288.905z M8.628,288.082v2.344l0.019,0.792h-1.96l0.02-0.792v-5.812l-0.02-0.792h1.96
			l-0.019,0.792v1.948h0.99l-0.02,0.396v0.729l0.02,0.396H8.628z"/>
	</g>
	<g>
		<path style="fill:#FF0000;" d="M9.404,357.272l0.019,0.396H0.69l0.02-0.396v-0.641l-0.02-0.396h3.338v-0.507
			c-1.553-0.143-2.349-0.642-2.349-1.458c0-0.99,1.155-1.504,3.377-1.504c2.222,0,3.377,0.515,3.377,1.504
			c0,0.816-0.796,1.315-2.349,1.458v0.507h3.338l-0.019,0.396V357.272z M1.349,352.14v-0.459l-0.019-0.396h2.659l-0.029-0.649h2.193
			l-0.029,0.649h2.659l-0.02,0.396v0.459l0.02,0.396H1.33L1.349,352.14z M3.843,354.516c0.33,0.111,0.844,0.167,1.213,0.167
			c0.369,0,0.893-0.063,1.213-0.167c0.097-0.032,0.165-0.095,0.165-0.222c0-0.126-0.068-0.19-0.165-0.222
			c-0.32-0.103-0.844-0.167-1.213-0.167c-0.369,0-0.883,0.056-1.213,0.167c-0.097,0.032-0.165,0.095-0.165,0.222
			C3.678,354.421,3.746,354.484,3.843,354.516z"/>
	</g>
	<g>
		<path style="fill:#FF0000;" d="M0.835,344.56c0-1.069,1.067-1.782,2.669-1.782c1.611,0,2.678,0.712,2.678,1.782
			s-1.067,1.782-2.678,1.782C1.903,346.342,0.835,345.63,0.835,344.56z M1.631,349.32v-0.618l-0.02-0.8h5.396v-0.301H1.611
			l0.02-0.396v-0.174l-0.02-0.396h7.317l-0.02,0.792v0.539l0.02,0.792H3.63v0.309h5.551l-0.019,0.396v0.253l0.019,0.396H1.611
			L1.631,349.32z M4.271,344.56c0-0.325-0.282-0.515-0.767-0.515c-0.485,0-0.767,0.19-0.767,0.515s0.282,0.515,0.767,0.515
			C3.989,345.075,4.271,344.885,4.271,344.56z M7.027,345.621v-2.193l-0.02-0.792h1.902l-0.02,0.792v2.193l0.02,0.792H7.007
			L7.027,345.621z"/>
	</g>
	<g>
		<path style="fill:#FF0000;" d="M1,338.114v-2.384l-0.02-0.776h1.592v0.84H3.28v-0.84h1.543l-0.019,0.776v2.384l0.019,0.792H0.981
			L1,338.114z M8.967,340.077v1.362l0.02,0.792h-1.96l0.02-0.792v-0.848H1.582l0.02-0.396v-0.515l-0.02-0.396h7.405L8.967,340.077z
			 M2.563,337.686H3.29v-0.752H2.563V337.686z M8.967,338.256l0.02,0.792H7.124l0.02-0.792v-0.697h-0.35v0.697l0.02,0.792H5.144
			l0.02-0.792v-2.748l-0.02-0.792h1.669l-0.02,0.792v0.815h0.35v-0.815l-0.02-0.792h1.863l-0.02,0.792V338.256z"/>
	</g>
</g>
<path style="fill:#FF0000;" d="M4.042,373.139v-4.268c-0.476,0.153-0.617,0.216-1.446,0.279l0.009-1.297
	c0.353-0.036,0.564-0.071,0.926-0.207c0.529-0.207,0.776-0.423,1.032-0.612h1.543v6.104H4.042z"/>
<path style="fill:#FF0000;" d="M7.94,379.042c-0.203,0.288-0.423,0.468-0.521,0.549c-0.723,0.567-1.605,0.729-2.487,0.729
	c-0.132,0-0.679-0.009-1.155-0.117c-0.371-0.081-1.632-0.414-2.152-1.656c-0.105-0.261-0.238-0.72-0.238-1.404
	c0-0.279,0-1.071,0.423-1.801c0.379-0.648,1.023-1.27,2.575-1.413c0.22-0.019,0.441-0.027,0.67-0.027
	c0.264,0.009,0.943,0,1.658,0.271c0.08,0.026,0.291,0.117,0.494,0.243c0.564,0.351,0.935,0.899,1.111,1.539
	c0.062,0.234,0.132,0.604,0.132,1.17C8.452,377.386,8.443,378.313,7.94,379.042z M6.238,376.405c-0.071-0.352-0.3-1.206-1.35-1.17
	c-0.291,0.009-0.502,0.09-0.6,0.144c-0.75,0.405-0.741,1.53-0.741,1.665c0,0.1,0,0.288,0.035,0.541
	c0.053,0.333,0.221,1.341,1.332,1.341c0.3,0,0.564-0.045,0.802-0.243c0.088-0.071,0.177-0.171,0.247-0.27
	c0.15-0.226,0.335-0.693,0.335-1.378C6.299,376.936,6.299,376.684,6.238,376.405z"/>
<path style="fill:#FF0000;" d="M4.042,387.143v-4.268c-0.476,0.153-0.617,0.216-1.446,0.279l0.009-1.297
	c0.353-0.036,0.564-0.071,0.926-0.207c0.529-0.207,0.776-0.423,1.032-0.612h1.543v6.104H4.042z"/>
<path style="fill:#FF0000;" d="M6.273,394.145v-2.44H3.548v2.44h-2.24v-6.356h2.249v2.314h2.716v-2.314h2.258v6.356H6.273z"/>
<path style="fill:#FF0000;" d="M7.684,400.661c-0.327,0.225-0.644,0.378-1.014,0.486c-0.362,0.107-0.909,0.216-1.791,0.216
	c-1.323,0-2.125-0.297-2.628-0.604c-0.167-0.099-0.476-0.306-0.785-0.684c-0.662-0.819-0.688-1.647-0.688-2.053
	c0-1.603,0.838-2.404,1.349-2.755c0.529-0.369,1.288-0.693,2.681-0.711c0.282,0,0.556,0,0.838,0.026
	c1.649,0.136,2.417,0.802,2.849,1.432c0.203,0.306,0.564,0.963,0.564,1.927C9.06,398.509,8.945,399.787,7.684,400.661z
	 M6.202,396.429c-0.088-0.09-0.3-0.252-0.6-0.36c-0.159-0.054-0.326-0.099-0.662-0.099c-0.291,0-0.529,0.027-0.802,0.144
	c-0.732,0.315-1.067,1.081-1.067,1.855c0,0.116,0.009,0.44,0.124,0.773c0.371,1.135,1.376,1.216,1.755,1.216
	c0.106,0,0.503,0,0.838-0.153c0.697-0.315,0.979-1.125,0.979-1.846C6.767,397.15,6.432,396.636,6.202,396.429z"/>
<path style="fill:#FF0000;" d="M7.314,412.036v1.107H5.33v-1.107H1.414v-1.333l3.519-3.654h2.39v3.556h1.041v1.432H7.314z
	 M5.33,408.669l-1.879,1.936H5.33V408.669z"/>
<path style="fill:#FF0000;" d="M4.042,420.146v-4.268c-0.476,0.153-0.617,0.216-1.446,0.279l0.009-1.297
	c0.353-0.036,0.564-0.071,0.926-0.207c0.529-0.207,0.776-0.423,1.032-0.612h1.543v6.104H4.042z"/>
<path style="fill:#FF0000;" d="M8.24,426.75c-0.044,0.549-0.124,0.81-0.476,1.233c-0.273,0.342-0.538,0.566-0.864,0.854
	c-0.238,0.217-0.477,0.441-0.706,0.667c-0.3,0.278-0.573,0.549-0.82,0.873c-0.432,0.576-0.564,1.062-0.732,1.765H2.278
	c0.026-0.207,0.08-0.505,0.211-0.945c0.115-0.36,0.309-0.99,0.97-1.621c0.3-0.278,0.75-0.603,1.094-0.828
	c0.15-0.099,0.317-0.188,0.467-0.297l0.371-0.271c0.362-0.261,0.415-0.449,0.441-0.684H1.714v-1.449h6.588L8.24,426.75z"/>
<path style="fill:#FF0000;" d="M8.293,444.14h-2.39l-0.97-3.962l-0.988,3.962H1.537l-1.508-6.356h2.179l0.688,4.097l0.926-4.097
	h2.275l0.847,4.078l0.679-4.078h2.169L8.293,444.14z"/>
<path style="fill:#FF0000;" d="M7.684,450.653c-0.327,0.225-0.644,0.378-1.014,0.486c-0.362,0.107-0.909,0.216-1.791,0.216
	c-1.323,0-2.125-0.297-2.628-0.604c-0.167-0.099-0.476-0.306-0.785-0.684c-0.662-0.819-0.688-1.647-0.688-2.053
	c0-1.603,0.838-2.404,1.349-2.755c0.529-0.369,1.288-0.693,2.681-0.711c0.282,0,0.556,0,0.838,0.026
	c1.649,0.136,2.417,0.802,2.849,1.432c0.203,0.306,0.564,0.963,0.564,1.927C9.06,448.501,8.945,449.78,7.684,450.653z
	 M6.202,446.421c-0.088-0.09-0.3-0.252-0.6-0.36c-0.159-0.054-0.326-0.099-0.662-0.099c-0.291,0-0.529,0.027-0.802,0.144
	c-0.732,0.315-1.067,1.081-1.067,1.855c0,0.116,0.009,0.44,0.124,0.773c0.371,1.135,1.376,1.216,1.755,1.216
	c0.106,0,0.503,0,0.838-0.153c0.697-0.315,0.979-1.125,0.979-1.846C6.767,447.142,6.432,446.628,6.202,446.421z"/>
<path style="fill:#FF0000;" d="M6.295,458.138l-1.288-2.313H3.826v2.313h-2.24v-6.355h4.586c0.838,0,1.641,0.062,2.143,0.873
	c0.115,0.189,0.318,0.567,0.318,1.144c0,0.297-0.062,1.143-0.847,1.584c-0.15,0.09-0.265,0.135-0.583,0.216l1.553,2.539H6.295z
	 M6.313,453.484c-0.15-0.225-0.397-0.261-0.635-0.261H3.826v1.17h1.675c0.423,0,0.644-0.054,0.785-0.225
	c0.115-0.145,0.124-0.288,0.124-0.36C6.41,453.754,6.401,453.61,6.313,453.484z"/>
<path style="fill:#FF0000;" d="M2.419,465.138v-6.355h2.24v4.807h3.184v1.549H2.419z"/>
<path style="fill:#FF0000;" d="M8.042,471.112c-0.106,0.135-0.327,0.36-0.697,0.576c-0.132,0.072-0.415,0.226-0.794,0.324
	c-0.317,0.081-0.547,0.126-1.173,0.126H1.427v-6.355h3.537c0.247,0,0.494,0.009,0.741,0.026c1.446,0.126,2.082,0.747,2.452,1.297
	c0.529,0.774,0.546,1.584,0.546,1.927C8.703,469.321,8.676,470.356,8.042,471.112z M5.951,467.637
	c-0.467-0.36-1.129-0.343-1.279-0.343H3.605v3.403h1.138c0.124,0,0.256-0.009,0.388-0.027c0.768-0.099,1.041-0.45,1.191-0.773
	c0.194-0.405,0.203-0.748,0.203-0.919C6.525,468.78,6.498,468.069,5.951,467.637z"/>
<path style="fill:#FF0000;" d="M8.346,478.319c-0.803,0.828-2.099,1.035-3.184,1.035c-1.173,0-1.843-0.225-2.311-0.45
	c-0.618-0.297-1.808-1.08-1.808-2.943c0-0.333,0.044-1.152,0.564-1.918c0.547-0.801,1.552-1.53,3.625-1.53
	c1.693,0,2.654,0.45,3.175,1.035c0.344,0.378,0.476,0.802,0.529,0.973l-2.064,0.369c-0.062-0.126-0.097-0.198-0.185-0.315
	c-0.335-0.441-0.891-0.621-1.411-0.612c-0.212,0-0.917,0.045-1.411,0.576c-0.344,0.378-0.485,0.909-0.485,1.414
	c0,0.675,0.238,1.08,0.406,1.296c0.485,0.648,1.146,0.666,1.429,0.666c0.829,0,1.323-0.423,1.517-0.684
	c0.071-0.1,0.115-0.172,0.194-0.379l2.125,0.226C8.981,477.311,8.813,477.832,8.346,478.319z"/>
<path style="fill:#FF0000;" d="M7.949,485.535c-0.538,0.514-1.438,0.828-3.016,0.828c-0.15,0-0.75,0-1.296-0.071
	c-0.212-0.027-1.491-0.181-2.073-1.081c-0.344-0.53-0.326-1.143-0.326-1.35v-4.078H3.46v3.609c0,0.459,0.035,0.864,0.396,1.197
	c0.388,0.36,0.926,0.36,1.076,0.36c0.124,0,0.679-0.009,1.049-0.333c0.159-0.144,0.238-0.315,0.265-0.378
	c0.132-0.288,0.141-0.576,0.141-0.883v-3.573h2.223v3.33C8.611,483.978,8.637,484.877,7.949,485.535z"/>
<path style="fill:#FF0000;" d="M7.839,490.473c-0.6,0.414-1.464,0.424-2.144,0.424H4.011v2.241H1.789v-6.355h4.269
	c0.212,0,0.432,0,0.644,0.018c0.732,0.045,1.358,0.225,1.711,0.945c0.097,0.207,0.22,0.531,0.22,1.062
	C8.632,489.114,8.597,489.96,7.839,490.473z M6.322,488.52c-0.15-0.271-0.423-0.297-0.688-0.297H4.011v1.242h1.455
	c0.256,0,0.379,0,0.502-0.036c0.273-0.072,0.433-0.288,0.433-0.585C6.402,488.682,6.348,488.574,6.322,488.52z"/>
<path style="fill:#FF0000;" d="M6.295,500.138l-1.288-2.313H3.826v2.313h-2.24v-6.355h4.586c0.838,0,1.641,0.062,2.143,0.873
	c0.115,0.188,0.318,0.567,0.318,1.144c0,0.297-0.062,1.143-0.847,1.584c-0.15,0.09-0.265,0.135-0.583,0.216l1.553,2.539H6.295z
	 M6.313,495.484c-0.15-0.226-0.397-0.261-0.635-0.261H3.826v1.17h1.675c0.423,0,0.644-0.054,0.785-0.225
	c0.115-0.145,0.124-0.288,0.124-0.36C6.41,495.753,6.401,495.61,6.313,495.484z"/>
<path style="fill:#FF0000;" d="M7.684,506.652c-0.327,0.226-0.644,0.378-1.014,0.486c-0.362,0.108-0.909,0.216-1.791,0.216
	c-1.323,0-2.125-0.297-2.628-0.603c-0.167-0.1-0.476-0.307-0.785-0.685c-0.662-0.819-0.688-1.647-0.688-2.053
	c0-1.603,0.838-2.403,1.349-2.755c0.529-0.369,1.288-0.693,2.681-0.711c0.282,0,0.556,0,0.838,0.027
	c1.649,0.135,2.417,0.801,2.849,1.431c0.203,0.307,0.564,0.964,0.564,1.927C9.06,504.5,8.945,505.779,7.684,506.652z M6.202,502.42
	c-0.088-0.09-0.3-0.252-0.6-0.359c-0.159-0.055-0.326-0.1-0.662-0.1c-0.291,0-0.529,0.027-0.802,0.145
	c-0.732,0.314-1.067,1.08-1.067,1.854c0,0.117,0.009,0.441,0.124,0.774c0.371,1.134,1.376,1.215,1.755,1.215
	c0.106,0,0.503,0,0.838-0.153c0.697-0.314,0.979-1.125,0.979-1.845C6.767,503.141,6.432,502.627,6.202,502.42z"/>
<path style="fill:#FF0000;" d="M1.793,514.14v-1.251c0.159-0.307,0.326-0.648,0.891-1.099c0.573-0.459,1.041-0.666,1.702-0.973
	c0.282-0.126,0.564-0.261,0.855-0.405c0.044-0.018,0.3-0.126,0.441-0.288c0.115-0.135,0.141-0.278,0.141-0.351
	c-0.009-0.495-0.644-0.54-0.97-0.54c-0.617,0-0.882,0.233-0.988,0.521c-0.044,0.117-0.053,0.189-0.062,0.405l-1.834-0.045
	c0.035-0.558,0.079-0.99,0.458-1.432c0.07-0.09,0.229-0.27,0.494-0.404c0.405-0.217,1.111-0.343,2.152-0.343
	c1.129,0,1.781,0.181,2.205,0.478c0.6,0.432,0.653,0.999,0.653,1.287c0,0.342-0.088,0.792-0.679,1.261
	c-0.326,0.252-0.679,0.414-1.42,0.738c-0.415,0.18-0.829,0.369-1.226,0.594c-0.335,0.189-0.502,0.315-0.644,0.433
	c0.185-0.01,0.361-0.019,0.547-0.019h3.519v1.432H1.793z"/>
<path style="fill:#FF0000;" d="M7.94,520.044c-0.203,0.288-0.423,0.469-0.521,0.55c-0.723,0.566-1.605,0.729-2.487,0.729
	c-0.132,0-0.679-0.009-1.155-0.116c-0.371-0.081-1.632-0.415-2.152-1.657c-0.105-0.261-0.238-0.72-0.238-1.404
	c0-0.279,0-1.071,0.423-1.801c0.379-0.647,1.023-1.269,2.575-1.413c0.22-0.018,0.441-0.027,0.67-0.027
	c0.264,0.01,0.943,0,1.658,0.271c0.08,0.027,0.291,0.117,0.494,0.243c0.564,0.351,0.935,0.9,1.111,1.539
	c0.062,0.234,0.132,0.604,0.132,1.171C8.452,518.388,8.443,519.316,7.94,520.044z M6.238,517.407c-0.071-0.351-0.3-1.206-1.35-1.17
	c-0.291,0.009-0.502,0.09-0.6,0.144c-0.75,0.405-0.741,1.53-0.741,1.666c0,0.099,0,0.288,0.035,0.54
	c0.053,0.333,0.221,1.341,1.332,1.341c0.3,0,0.564-0.045,0.802-0.242c0.088-0.072,0.177-0.172,0.247-0.271
	c0.15-0.225,0.335-0.693,0.335-1.377C6.299,517.938,6.299,517.686,6.238,517.407z"/>
<path style="fill:#FF0000;" d="M6.961,528.145v-0.702c-0.141,0.135-0.238,0.234-0.564,0.414c-0.406,0.225-1.015,0.478-2.073,0.478
	c-0.397,0-1.482-0.027-2.425-0.774c-0.344-0.271-0.538-0.531-0.626-0.676c-0.194-0.288-0.502-0.927-0.502-1.836
	c0-0.424,0.053-1.404,0.829-2.269c0.582-0.64,1.596-1.278,3.483-1.278c0.229,0,1.482,0.018,2.39,0.468
	c0.335,0.171,0.538,0.351,0.644,0.459c0.159,0.145,0.309,0.315,0.415,0.495c0.07,0.108,0.159,0.324,0.159,0.324l-2.205,0.243
	c-0.211-0.234-0.6-0.559-1.367-0.559c-0.194,0-0.759,0.01-1.252,0.369c-0.282,0.207-0.803,0.729-0.803,1.684
	c0,0.198,0.018,0.792,0.415,1.261c0.362,0.441,0.961,0.639,1.517,0.639c1.005,0,1.605-0.576,1.764-0.936
	c0.009-0.019,0.026-0.1,0.044-0.172H5.179v-1.44h3.713v3.809H6.961z"/>
<path style="fill:#FF0000;" d="M3.808,535.138v-6.355H6.04v6.355H3.808z"/>
<path style="fill:#FF0000;" d="M2.419,542.138v-6.355h2.24v4.807h3.184v1.549H2.419z"/>
<path style="fill:#FF0000;" d="M7.243,554.135v-4.069l-1.473,4.069h-1.72l-1.464-4.051v4.051H0.4v-6.355h2.955l1.57,4.149
	l1.57-4.149H9.44v6.355H7.243z"/>
<path style="fill:#FF0000;" d="M6.467,561.137l-0.335-1.035H3.751l-0.335,1.035H0.964l2.69-6.355h2.54l2.699,6.355H6.467z
	 M4.933,556.545l-0.714,2.152h1.446L4.933,556.545z"/>
<path style="fill:#FF0000;" d="M7.839,565.473c-0.6,0.414-1.464,0.424-2.144,0.424H4.011v2.241H1.789v-6.355h4.269
	c0.212,0,0.432,0,0.644,0.018c0.732,0.045,1.358,0.225,1.711,0.945c0.097,0.207,0.22,0.531,0.22,1.062
	C8.632,564.114,8.597,564.96,7.839,565.473z M6.322,563.52c-0.15-0.271-0.423-0.297-0.688-0.297H4.011v1.242h1.455
	c0.256,0,0.379,0,0.502-0.036c0.273-0.072,0.433-0.288,0.433-0.585C6.402,563.682,6.348,563.574,6.322,563.52z"/>
<path style="fill:#FF0000;" d="M7.684,574.652c-0.327,0.226-0.644,0.378-1.014,0.486c-0.362,0.108-0.909,0.216-1.791,0.216
	c-1.323,0-2.125-0.297-2.628-0.603c-0.167-0.1-0.476-0.307-0.785-0.685c-0.662-0.819-0.688-1.647-0.688-2.053
	c0-1.603,0.838-2.403,1.349-2.755c0.529-0.369,1.288-0.693,2.681-0.711c0.282,0,0.556,0,0.838,0.027
	c1.649,0.135,2.417,0.801,2.849,1.431c0.203,0.307,0.564,0.964,0.564,1.927C9.06,572.5,8.945,573.779,7.684,574.652z M6.202,570.42
	c-0.088-0.09-0.3-0.252-0.6-0.359c-0.159-0.055-0.326-0.1-0.662-0.1c-0.291,0-0.529,0.027-0.802,0.145
	c-0.732,0.314-1.067,1.08-1.067,1.854c0,0.117,0.009,0.441,0.124,0.774c0.371,1.134,1.376,1.215,1.755,1.215
	c0.106,0,0.503,0,0.838-0.153c0.697-0.314,0.979-1.125,0.979-1.845C6.767,571.141,6.432,570.627,6.202,570.42z"/>
<path style="fill:#FF0000;" d="M6.961,582.138v-0.702c-0.141,0.135-0.238,0.234-0.564,0.414c-0.406,0.225-1.015,0.478-2.073,0.478
	c-0.397,0-1.482-0.027-2.425-0.774c-0.344-0.271-0.538-0.531-0.626-0.676c-0.194-0.288-0.502-0.927-0.502-1.836
	c0-0.424,0.053-1.404,0.829-2.269c0.582-0.64,1.596-1.278,3.483-1.278c0.229,0,1.482,0.018,2.39,0.468
	c0.335,0.171,0.538,0.351,0.644,0.459c0.159,0.145,0.309,0.315,0.415,0.495c0.07,0.108,0.159,0.324,0.159,0.324l-2.205,0.243
	c-0.211-0.234-0.6-0.559-1.367-0.559c-0.194,0-0.759,0.01-1.252,0.369c-0.282,0.207-0.803,0.729-0.803,1.684
	c0,0.198,0.018,0.792,0.415,1.261c0.362,0.441,0.961,0.639,1.517,0.639c1.005,0,1.605-0.576,1.764-0.936
	c0.009-0.019,0.026-0.1,0.044-0.172H5.179v-1.44h3.713v3.809H6.961z"/>
<path style="fill:#FF0000;" d="M7.949,588.535c-0.538,0.514-1.438,0.828-3.016,0.828c-0.15,0-0.75,0-1.296-0.071
	c-0.212-0.027-1.491-0.181-2.073-1.081c-0.344-0.53-0.326-1.143-0.326-1.35v-4.078H3.46v3.609c0,0.459,0.035,0.864,0.396,1.197
	c0.388,0.36,0.926,0.36,1.076,0.36c0.124,0,0.679-0.009,1.049-0.333c0.159-0.144,0.238-0.315,0.265-0.378
	c0.132-0.288,0.141-0.576,0.141-0.883v-3.573h2.223v3.33C8.611,586.978,8.637,587.877,7.949,588.535z"/>
<path style="fill:#FF0000;" d="M7.843,600.288c-0.521,0.667-1.455,1.036-3.157,1.036c-1.464,0-2.293-0.352-2.752-0.883
	c-0.423-0.477-0.467-0.972-0.502-1.206l2.196-0.054c0.018,0.107,0.062,0.278,0.282,0.44c0.212,0.162,0.521,0.279,1.103,0.279
	c0.229,0,0.512-0.027,0.723-0.135c0.185-0.1,0.353-0.279,0.353-0.504c0-0.145-0.062-0.334-0.353-0.46
	c-0.15-0.062-0.521-0.135-0.953-0.216c-0.485-0.099-0.979-0.18-1.464-0.315c-0.529-0.152-1.014-0.342-1.332-0.837
	c-0.229-0.36-0.247-0.72-0.247-0.882c0-0.343,0.097-0.657,0.273-0.937c0.406-0.666,1.27-1.107,2.866-1.107
	c0.547,0,1.42,0.072,1.94,0.252c0.22,0.072,0.423,0.18,0.608,0.324c0.591,0.441,0.679,0.999,0.723,1.278l-2.178,0.126
	c-0.026-0.072-0.044-0.144-0.08-0.207c-0.141-0.243-0.458-0.387-1.023-0.387c-0.035,0-0.573-0.01-0.838,0.216
	c-0.124,0.099-0.141,0.243-0.141,0.306c0,0.072,0.018,0.189,0.141,0.288c0.309,0.253,1.411,0.405,2.522,0.667
	c0.714,0.171,1.049,0.359,1.288,0.621c0.159,0.162,0.415,0.495,0.415,1.089C8.257,599.515,8.108,599.955,7.843,600.288z"/>
<path style="fill:#FF0000;" d="M1.78,608.138v-6.355h6.57v1.422H4.011v1.045h4.013v1.431H4.011v1.018H8.43v1.44H1.78z"/>
<path style="fill:#FF0000;" d="M7.684,614.652c-0.327,0.226-0.644,0.378-1.014,0.486c-0.362,0.108-0.909,0.216-1.791,0.216
	c-1.323,0-2.125-0.297-2.628-0.603c-0.167-0.1-0.476-0.307-0.785-0.685c-0.662-0.819-0.688-1.647-0.688-2.053
	c0-1.603,0.838-2.403,1.349-2.755c0.529-0.369,1.288-0.693,2.681-0.711c0.282,0,0.556,0,0.838,0.027
	c1.649,0.135,2.417,0.801,2.849,1.431c0.203,0.307,0.564,0.964,0.564,1.927C9.06,612.5,8.945,613.779,7.684,614.652z M6.202,610.42
	c-0.088-0.09-0.3-0.252-0.6-0.359c-0.159-0.055-0.326-0.1-0.662-0.1c-0.291,0-0.529,0.027-0.802,0.145
	c-0.732,0.314-1.067,1.08-1.067,1.854c0,0.117,0.009,0.441,0.124,0.774c0.371,1.134,1.376,1.215,1.755,1.215
	c0.106,0,0.503,0,0.838-0.153c0.697-0.314,0.979-1.125,0.979-1.845C6.767,611.141,6.432,610.627,6.202,610.42z"/>
<path style="fill:#FF0000;" d="M7.949,621.535c-0.538,0.514-1.438,0.828-3.016,0.828c-0.15,0-0.75,0-1.296-0.071
	c-0.212-0.027-1.491-0.181-2.073-1.081c-0.344-0.53-0.326-1.143-0.326-1.35v-4.078H3.46v3.609c0,0.459,0.035,0.864,0.396,1.197
	c0.388,0.36,0.926,0.36,1.076,0.36c0.124,0,0.679-0.009,1.049-0.333c0.159-0.144,0.238-0.315,0.265-0.378
	c0.132-0.288,0.141-0.576,0.141-0.883v-3.573h2.223v3.33C8.611,619.978,8.637,620.877,7.949,621.535z"/>
<path style="fill:#FF0000;" d="M2.419,629.138v-6.355h2.24v4.807h3.184v1.549H2.419z"/>
<path style="fill:#FF0000;" d="M6.295,641.138l-1.288-2.313H3.826v2.313h-2.24v-6.355h4.586c0.838,0,1.641,0.062,2.143,0.873
	c0.115,0.188,0.318,0.567,0.318,1.144c0,0.297-0.062,1.143-0.847,1.584c-0.15,0.09-0.265,0.135-0.583,0.216l1.553,2.539H6.295z
	 M6.313,636.484c-0.15-0.226-0.397-0.261-0.635-0.261H3.826v1.17h1.675c0.423,0,0.644-0.054,0.785-0.225
	c0.115-0.145,0.124-0.288,0.124-0.36C6.41,636.753,6.401,636.61,6.313,636.484z"/>
<path style="fill:#FF0000;" d="M1.78,648.138v-6.355h6.57v1.422H4.011v1.045h4.013v1.431H4.011v1.018H8.43v1.44H1.78z"/>
<path style="fill:#FF0000;" d="M7.839,652.473c-0.6,0.414-1.464,0.424-2.144,0.424H4.011v2.241H1.789v-6.355h4.269
	c0.212,0,0.432,0,0.644,0.018c0.732,0.045,1.358,0.225,1.711,0.945c0.097,0.207,0.22,0.531,0.22,1.062
	C8.632,651.114,8.597,651.96,7.839,652.473z M6.322,650.52c-0.15-0.271-0.423-0.297-0.688-0.297H4.011v1.242h1.455
	c0.256,0,0.379,0,0.502-0.036c0.273-0.072,0.433-0.288,0.433-0.585C6.402,650.682,6.348,650.574,6.322,650.52z"/>
<path style="fill:#FF0000;" d="M8.487,661.372c-0.574,0.702-1.579,0.766-2.373,0.766H1.325v-6.355h5.23
	c0.626,0,1.394,0.045,1.764,0.666c0.088,0.144,0.212,0.414,0.212,0.819c0,0.144-0.009,0.549-0.265,0.882
	c-0.141,0.18-0.423,0.423-0.926,0.549c0.388,0.063,0.741,0.127,1.05,0.396c0.37,0.315,0.458,0.702,0.458,1.17
	C8.848,660.463,8.84,660.932,8.487,661.372z M6.07,659.581H3.557v1.107h2.346c0.018,0,0.194,0,0.309-0.027
	c0.282-0.062,0.423-0.27,0.423-0.558C6.634,659.59,6.22,659.581,6.07,659.581z M6.326,657.439c-0.115-0.198-0.326-0.226-0.529-0.226
	H3.574v0.99h2.063c0.229,0,0.556,0.019,0.697-0.243c0.036-0.071,0.062-0.171,0.062-0.252C6.397,657.663,6.397,657.556,6.326,657.439
	z"/>
<path style="fill:#FF0000;" d="M7.949,668.535c-0.538,0.514-1.438,0.828-3.016,0.828c-0.15,0-0.75,0-1.296-0.071
	c-0.212-0.027-1.491-0.181-2.073-1.081c-0.344-0.53-0.326-1.143-0.326-1.35v-4.078H3.46v3.609c0,0.459,0.035,0.864,0.396,1.197
	c0.388,0.36,0.926,0.36,1.076,0.36c0.124,0,0.679-0.009,1.049-0.333c0.159-0.144,0.238-0.315,0.265-0.378
	c0.132-0.288,0.141-0.576,0.141-0.883v-3.573h2.223v3.33C8.611,666.978,8.637,667.877,7.949,668.535z"/>
<path style="fill:#FF0000;" d="M2.419,676.138v-6.355h2.24v4.807h3.184v1.549H2.419z"/>
<path style="fill:#FF0000;" d="M3.804,683.14v-6.355h2.231v6.355H3.804z"/>
<path style="fill:#FF0000;" d="M8.346,689.319c-0.803,0.828-2.099,1.035-3.184,1.035c-1.173,0-1.843-0.225-2.311-0.45
	c-0.618-0.297-1.808-1.08-1.808-2.943c0-0.333,0.044-1.152,0.564-1.918c0.547-0.801,1.552-1.53,3.625-1.53
	c1.693,0,2.654,0.45,3.175,1.035c0.344,0.378,0.476,0.802,0.529,0.973l-2.064,0.369c-0.062-0.126-0.097-0.198-0.185-0.315
	c-0.335-0.441-0.891-0.621-1.411-0.612c-0.212,0-0.917,0.045-1.411,0.576c-0.344,0.378-0.485,0.909-0.485,1.414
	c0,0.675,0.238,1.08,0.406,1.296c0.485,0.648,1.146,0.666,1.429,0.666c0.829,0,1.323-0.423,1.517-0.684
	c0.071-0.1,0.115-0.172,0.194-0.379l2.125,0.226C8.981,688.311,8.813,688.832,8.346,689.319z"/>
<path style="fill:#FF0000;" d="M7.684,701.649c-0.327,0.226-0.644,0.378-1.014,0.486c-0.362,0.108-0.909,0.216-1.791,0.216
	c-1.323,0-2.125-0.297-2.628-0.603c-0.167-0.1-0.476-0.307-0.785-0.685c-0.662-0.819-0.688-1.647-0.688-2.053
	c0-1.603,0.838-2.403,1.349-2.755c0.529-0.369,1.288-0.693,2.681-0.711c0.282,0,0.556,0,0.838,0.027
	c1.649,0.135,2.417,0.801,2.849,1.431c0.203,0.307,0.564,0.964,0.564,1.927C9.06,699.497,8.945,700.776,7.684,701.649z
	 M6.202,697.417c-0.088-0.09-0.3-0.252-0.6-0.359c-0.159-0.055-0.326-0.1-0.662-0.1c-0.291,0-0.529,0.027-0.802,0.145
	c-0.732,0.314-1.067,1.08-1.067,1.854c0,0.117,0.009,0.44,0.124,0.774c0.371,1.134,1.376,1.215,1.755,1.215
	c0.106,0,0.503,0,0.838-0.153c0.697-0.314,0.979-1.125,0.979-1.845C6.767,698.138,6.432,697.624,6.202,697.417z"/>
<path style="fill:#FF0000;" d="M4.386,704.213v1.216H7.94v1.422H4.386v2.287H2.154v-6.355h6.103v1.431H4.386z"/>
<path style="fill:#FF0000;" d="M6.251,721.138l-1.631-2.403l-0.776,0.756v1.647H1.78v-6.355h2.072v2.376l2.09-2.376H8.65
	l-2.443,2.403l2.725,3.952H6.251z"/>
<path style="fill:#FF0000;" d="M7.684,727.652c-0.327,0.226-0.644,0.378-1.014,0.486c-0.362,0.108-0.909,0.216-1.791,0.216
	c-1.323,0-2.125-0.297-2.628-0.603c-0.167-0.1-0.476-0.307-0.785-0.685c-0.662-0.819-0.688-1.647-0.688-2.053
	c0-1.603,0.838-2.403,1.349-2.755c0.529-0.369,1.288-0.693,2.681-0.711c0.282,0,0.556,0,0.838,0.027
	c1.649,0.135,2.417,0.801,2.849,1.431c0.203,0.307,0.564,0.964,0.564,1.927C9.06,725.5,8.945,726.779,7.684,727.652z M6.202,723.42
	c-0.088-0.09-0.3-0.252-0.6-0.359c-0.159-0.055-0.326-0.1-0.662-0.1c-0.291,0-0.529,0.027-0.802,0.145
	c-0.732,0.314-1.067,1.08-1.067,1.854c0,0.117,0.009,0.441,0.124,0.774c0.371,1.134,1.376,1.215,1.755,1.215
	c0.106,0,0.503,0,0.838-0.153c0.697-0.314,0.979-1.125,0.979-1.845C6.767,724.141,6.432,723.627,6.202,723.42z"/>
<path style="fill:#FF0000;" d="M6.295,735.138l-1.288-2.313H3.826v2.313h-2.24v-6.355h4.586c0.838,0,1.641,0.062,2.143,0.873
	c0.115,0.188,0.318,0.567,0.318,1.144c0,0.297-0.062,1.143-0.847,1.584c-0.15,0.09-0.265,0.135-0.583,0.216l1.553,2.539H6.295z
	 M6.313,730.484c-0.15-0.226-0.397-0.261-0.635-0.261H3.826v1.17h1.675c0.423,0,0.644-0.054,0.785-0.225
	c0.115-0.145,0.124-0.288,0.124-0.36C6.41,730.753,6.401,730.61,6.313,730.484z"/>
<path style="fill:#FF0000;" d="M1.78,742.138v-6.355h6.57v1.422H4.011v1.045h4.013v1.431H4.011v1.018H8.43v1.44H1.78z"/>
<path style="fill:#FF0000;" d="M6.467,749.138l-0.335-1.035H3.751l-0.335,1.035H0.964l2.69-6.355h2.54l2.699,6.355H6.467z
	 M4.933,744.546l-0.714,2.152h1.446L4.933,744.546z"/>
<rect x="4.174" y="421.541" style="fill:#FF0000;" width="1.5" height="3.25"/>
</svg>
