<?xml version="1.0" encoding="iso-8859-1"?>
<!-- Generator: Adobe Illustrator 30.0.0, SVG Export Plug-In . SVG Version: 9.03 Build 0)  -->
<svg version="1.1" id="&#xB808;&#xC774;&#xC5B4;_1" xmlns="http://www.w3.org/2000/svg" xmlns:xlink="http://www.w3.org/1999/xlink"
	 x="0px" y="0px" viewBox="0 0 500 500" style="enable-background:new 0 0 500 500;" xml:space="preserve">
<g>
	<polygon style="fill:#FF0000;" points="102.384,188.266 109.92,188.266 106.108,177.058 	"/>
	<path style="fill:#FF0000;" d="M39.194,435.432c-0.656,0.084-1.057,0.209-1.057,0.703c0,0.495,0.401,0.62,1.057,0.74
		c2.073,0.333,5.411,0.536,7.734,0.536c2.271,0,5.609-0.203,7.682-0.536c0.656-0.12,1.057-0.245,1.057-0.74
		c0-0.495-0.401-0.62-1.057-0.703c-2.073-0.328-5.411-0.536-7.682-0.536C44.605,434.895,41.267,435.104,39.194,435.432z"/>
	<path style="fill:#FF0000;" d="M230.984,474.866c-2.323-0.537-6.062-0.865-8.64-0.865c-2.578,0-6.318,0.328-8.64,0.865
		c-0.76,0.167-1.214,0.495-1.214,1.156c0,0.661,0.453,0.99,1.214,1.156c2.323,0.537,6.062,0.865,8.64,0.865
		c2.578,0,6.318-0.328,8.64-0.865c0.76-0.167,1.214-0.495,1.214-1.156C232.198,475.361,231.745,475.033,230.984,474.866z"/>
	<path style="fill:#FF0000;" d="M403.327,29.26c0.599-0.75,0.646-1.5,0.646-1.875c0-0.281-0.047-1.036-0.505-1.693
		c-0.781-1.172-2.068-1.359-3.307-1.359h-9.646v6.099h8.724C401.447,30.432,402.593,30.15,403.327,29.26z"/>
	<path style="fill:#FF0000;" d="M332.954,456.183c0-2.021-1.463-3.219-3.989-3.219c-2.526,0-3.995,1.198-3.995,3.219
		c0,2.021,1.469,3.214,3.995,3.214C331.491,459.396,332.954,458.204,332.954,456.183z"/>
	<path style="fill:#FF0000;" d="M280.302,119.266c0.552,0,2.62,0,4.365-0.797c3.63-1.646,5.099-5.864,5.099-9.614
		c0-4.219-1.745-6.89-2.943-7.968c-0.458-0.469-1.562-1.313-3.12-1.88c-0.828-0.281-1.703-0.516-3.448-0.516
		c-1.516,0-2.755,0.141-4.182,0.755c-3.813,1.641-5.557,5.625-5.557,9.656c0,0.609,0.047,2.297,0.646,4.031
		C273.089,118.844,278.328,119.266,280.302,119.266z"/>
	<path style="fill:#FF0000;" d="M271.688,451.273c-0.557,0.125-0.964,0.328-0.964,0.906c0,0.495,0.406,0.703,0.964,0.828
		c1.969,0.453,5.151,0.656,7.328,0.656c2.172,0,5.354-0.203,7.323-0.656c0.557-0.125,0.964-0.333,0.964-0.828
		c0-0.578-0.406-0.781-0.964-0.906c-1.969-0.453-5.151-0.662-7.323-0.662C276.839,450.611,273.657,450.82,271.688,451.273z"/>
	<path style="fill:#FF0000;" d="M396.37,157.025c0.552,0,2.62,0,4.365-0.797c3.63-1.646,5.099-5.864,5.099-9.614
		c0-4.219-1.745-6.89-2.943-7.968c-0.458-0.469-1.562-1.313-3.12-1.88c-0.828-0.281-1.703-0.516-3.448-0.516
		c-1.516,0-2.755,0.141-4.182,0.755c-3.812,1.641-5.557,5.625-5.557,9.656c0,0.609,0.047,2.297,0.646,4.031
		C389.157,156.604,394.397,157.025,396.37,157.025z"/>
	<path style="fill:#FF0000;" d="M155.164,434.609c-0.557,0.125-1.01,0.328-1.01,0.865c0,0.495,0.453,0.786,1.01,0.87
		c2.12,0.411,5.458,0.656,7.781,0.656c2.323,0,5.661-0.245,7.781-0.656c0.557-0.083,1.01-0.375,1.01-0.87
		c0-0.537-0.453-0.74-1.01-0.865c-2.12-0.453-5.458-0.662-7.781-0.662C160.622,433.947,157.284,434.156,155.164,434.609z"/>
	<polygon style="fill:#FF0000;" points="338.245,63.78 334.521,74.988 342.057,74.988 	"/>
	<polygon style="fill:#FF0000;" points="160.418,226.026 167.954,226.026 164.142,214.818 	"/>
	<path style="fill:#FF0000;" d="M396.37,194.785c0.552,0,2.62,0,4.365-0.797c3.63-1.646,5.099-5.864,5.099-9.614
		c0-4.219-1.745-6.89-2.943-7.968c-0.458-0.469-1.562-1.313-3.12-1.88c-0.828-0.281-1.703-0.516-3.448-0.516
		c-1.516,0-2.755,0.141-4.182,0.755c-3.812,1.641-5.557,5.625-5.557,9.656c0,0.609,0.047,2.297,0.646,4.031
		C389.157,194.363,394.397,194.785,396.37,194.785z"/>
	<path style="fill:#FF0000;" d="M154.101,454.863c-1.416,0-2.224,0.615-2.625,1.938c-0.505,1.609-0.912,4.083-0.912,6.187
		c0,2.146,0.406,4.62,0.912,6.187c0.453,1.318,1.26,1.938,2.625,1.938c1.313,0,2.125-0.62,2.578-1.938
		c0.557-1.692,0.958-4.167,0.958-6.187c0-2.021-0.401-4.5-0.958-6.187C156.273,455.478,155.466,454.863,154.101,454.863z"/>
	<path style="fill:#FF0000;" d="M222.268,194.785c0.552,0,2.62,0,4.365-0.797c3.63-1.646,5.099-5.864,5.099-9.614
		c0-4.219-1.745-6.89-2.942-7.968c-0.458-0.469-1.563-1.313-3.12-1.88c-0.828-0.281-1.703-0.516-3.448-0.516
		c-1.515,0-2.755,0.141-4.182,0.755c-3.812,1.641-5.557,5.625-5.557,9.656c0,0.609,0.047,2.297,0.646,4.031
		C215.055,194.363,220.294,194.785,222.268,194.785z"/>
	<path style="fill:#FF0000;" d="M403.327,104.779c0.599-0.75,0.646-1.5,0.646-1.875c0-0.281-0.047-1.036-0.505-1.693
		c-0.781-1.172-2.068-1.359-3.307-1.359h-9.646v6.099h8.724C401.447,105.951,402.593,105.669,403.327,104.779z"/>
	<path style="fill:#FF0000;" d="M447.708,463.071c0.76-0.25,1.011-0.62,1.011-1.156c0-0.536-0.25-0.906-1.011-1.156
		c-0.755-0.245-1.969-0.37-2.979-0.37c-1.011,0-2.224,0.125-2.932,0.37c-0.755,0.25-1.01,0.62-1.01,1.156
		c0,0.537,0.255,0.906,1.01,1.156c0.709,0.245,1.922,0.37,2.932,0.37C445.739,463.441,446.953,463.316,447.708,463.071z"/>
	<path style="fill:#FF0000;" d="M460.9,436.343c0.552-0.083,1.01-0.375,1.01-0.87c0-0.537-0.458-0.74-1.01-0.865
		c-2.125-0.453-5.458-0.662-7.786-0.662c-2.323,0-5.656,0.209-7.781,0.662c-0.552,0.125-1.01,0.328-1.01,0.865
		c0,0.495,0.458,0.786,1.01,0.87c2.125,0.411,5.458,0.656,7.781,0.656C455.442,436.999,458.775,436.754,460.9,436.343z"/>
	<path style="fill:#FF0000;" d="M48.165,157.025c0.552,0,2.62,0,4.364-0.797c3.63-1.646,5.099-5.864,5.099-9.614
		c0-4.219-1.745-6.89-2.943-7.968c-0.458-0.469-1.562-1.313-3.12-1.88c-0.828-0.281-1.703-0.516-3.448-0.516
		c-1.516,0-2.755,0.141-4.182,0.755c-3.812,1.641-5.557,5.625-5.557,9.656c0,0.609,0.047,2.297,0.646,4.031
		C40.952,156.604,46.191,157.025,48.165,157.025z"/>
	<path style="fill:#FF0000;" d="M454.405,81.506c0.552,0,2.62,0,4.364-0.797c3.63-1.646,5.099-5.864,5.099-9.614
		c0-4.219-1.745-6.89-2.943-7.968c-0.458-0.469-1.562-1.313-3.12-1.88c-0.828-0.281-1.703-0.516-3.448-0.516
		c-1.516,0-2.755,0.141-4.182,0.755c-3.812,1.641-5.557,5.625-5.557,9.656c0,0.609,0.047,2.297,0.646,4.031
		C447.192,81.085,452.431,81.506,454.405,81.506z"/>
	<path style="fill:#FF0000;" d="M461.55,38.257c1.011-2.109,1.052-3.891,1.052-4.781c0-1.031-0.135-4.734-2.984-6.984
		c-2.432-1.88-5.88-1.787-6.662-1.787h-5.557v17.729h5.927c0.641,0,1.333-0.047,2.021-0.141
		C459.341,41.778,460.768,39.945,461.55,38.257z"/>
	<path style="fill:#FF0000;" d="M48.165,119.266c0.552,0,2.62,0,4.364-0.797c3.63-1.646,5.099-5.864,5.099-9.614
		c0-4.219-1.745-6.89-2.943-7.968c-0.458-0.469-1.562-1.313-3.12-1.88c-0.828-0.281-1.703-0.516-3.448-0.516
		c-1.516,0-2.755,0.141-4.182,0.755c-3.812,1.641-5.557,5.625-5.557,9.656c0,0.609,0.047,2.297,0.646,4.031
		C40.952,118.844,46.191,119.266,48.165,119.266z"/>
	<path style="fill:#FF0000;" d="M457.806,287.803c-0.828-0.281-1.703-0.516-3.448-0.516c-1.516,0-2.755,0.141-4.182,0.755
		c-3.812,1.641-5.557,5.625-5.557,9.656c0,0.609,0.047,2.297,0.646,4.031c1.927,5.911,7.166,6.333,9.14,6.333
		c0.552,0,2.62,0,4.364-0.797c3.63-1.646,5.099-5.864,5.099-9.614c0-4.219-1.745-6.89-2.943-7.968
		C460.467,289.215,459.363,288.371,457.806,287.803z"/>
	<path style="fill:#FF0000;" d="M0.002,0.003v499.988H499.99V0.003H0.002z M436.055,16.841h18.416c1.286,0,2.573,0.047,3.859,0.141
		c7.536,0.651,10.843,3.885,12.77,6.745c2.755,4.031,2.849,8.25,2.849,10.031c0,1.5-0.135,6.89-3.442,10.828
		c-0.552,0.703-1.703,1.875-3.63,3c-0.693,0.375-2.161,1.172-4.135,1.687c-1.656,0.417-2.849,0.651-6.109,0.651h-20.578V16.841z
		 M439.702,57.08c2.76-1.927,6.708-3.609,13.968-3.698c1.469,0,2.891,0,4.365,0.141c8.588,0.698,12.583,4.167,14.838,7.442
		c1.052,1.599,2.938,5.021,2.938,10.036c0,2.953-0.599,9.614-7.167,14.156c-1.698,1.172-3.354,1.969-5.281,2.531
		c-1.885,0.562-4.734,1.12-9.328,1.12c-6.89,0-11.067-1.541-13.687-3.135c-0.875-0.516-2.479-1.594-4.088-3.563
		c-3.448-4.265-3.583-8.578-3.583-10.687C432.676,63.08,437.041,58.908,439.702,57.08z M459.572,318.914h14.104l-12.724,12.51
		l14.192,20.578h-13.963l-8.5-12.51l-4.042,3.938v8.573h-10.75v-33.088h10.797v12.37L459.572,318.914z M468.644,311.714
		c-1.698,1.172-3.354,1.969-5.281,2.531c-1.885,0.562-4.734,1.12-9.328,1.12c-6.89,0-11.067-1.541-13.687-3.135
		c-0.875-0.516-2.479-1.594-4.088-3.563c-3.448-4.265-3.583-8.578-3.583-10.687c0-8.344,4.365-12.515,7.026-14.343
		c2.76-1.927,6.708-3.609,13.968-3.698c1.469,0,2.891,0,4.365,0.141c8.588,0.698,12.583,4.167,14.838,7.442
		c1.052,1.599,2.938,5.021,2.938,10.036C475.811,300.512,475.212,307.173,468.644,311.714z M461.294,179.923v-12.047h11.76v33.088
		h-11.76v-12.703h-14.192v12.703H435.43v-33.088h11.718v12.047H461.294z M447.216,205.636l7.073,13.166l7.078-13.166h13.411
		l-14.698,23.249v9.838h-11.531v-9.838l-14.885-23.249H447.216z M470.412,256.239v7.448h-20.901v5.302h23.015v7.495h-34.635v-33.088
		h34.223v7.401h-22.604v5.442H470.412z M472.572,92.357v33.088h-9.646l-15.39-17.713v17.713h-11.484V92.357h9.598l15.484,17.437
		V92.357H472.572z M436.949,135.268c3.031-3.323,8.312-6.651,18.145-6.651c1.193,0,7.719,0.094,12.447,2.437
		c1.745,0.891,2.802,1.823,3.354,2.385c0.828,0.75,1.609,1.641,2.156,2.578c0.37,0.563,0.828,1.688,0.828,1.688l-11.484,1.266
		c-1.104-1.219-3.125-2.906-7.12-2.906c-1.01,0-3.948,0.047-6.521,1.922c-1.474,1.078-4.182,3.802-4.182,8.77
		c0,1.026,0.094,4.12,2.161,6.557c1.88,2.302,5.005,3.333,7.901,3.333c5.234,0,8.359-3,9.187-4.88
		c0.042-0.094,0.135-0.516,0.229-0.891H455.6v-7.495h19.338v19.823h-10.062v-3.651c-0.734,0.703-1.24,1.219-2.938,2.151
		c-2.115,1.172-5.281,2.484-10.797,2.484c-2.068,0-7.719-0.141-12.63-4.026c-1.792-1.406-2.802-2.766-3.26-3.516
		c-1.016-1.5-2.62-4.833-2.62-9.562C432.632,144.882,432.908,139.773,436.949,135.268z M378.843,16.838h23.89
		c4.364,0,8.541,0.328,11.161,4.542c0.599,0.984,1.656,2.953,1.656,5.958c0,1.547-0.323,5.953-4.412,8.245
		c-0.781,0.469-1.38,0.703-3.031,1.125l8.083,13.219h-12.817l-6.703-12.047h-6.156v12.047h-11.672V16.838z M402.045,54.6v33.088
		h-11.62V54.6H402.045z M378.843,92.357h23.89c4.364,0,8.541,0.328,11.161,4.542c0.599,0.984,1.656,2.953,1.656,5.958
		c0,1.547-0.323,5.953-4.412,8.245c-0.781,0.469-1.38,0.703-3.031,1.125l8.083,13.219h-12.817l-6.703-12.047h-6.156v12.047h-11.672
		V92.357z M381.668,132.599c2.76-1.927,6.708-3.609,13.968-3.698c1.469,0,2.891,0,4.365,0.141
		c8.588,0.698,12.583,4.167,14.838,7.442c1.052,1.599,2.938,5.021,2.938,10.036c0,2.953-0.599,9.614-7.167,14.156
		c-1.698,1.172-3.354,1.969-5.281,2.531c-1.885,0.562-4.734,1.12-9.328,1.12c-6.89,0-11.067-1.541-13.687-3.135
		c-0.875-0.516-2.479-1.594-4.089-3.563c-3.448-4.265-3.583-8.578-3.583-10.687C374.642,138.599,379.006,134.427,381.668,132.599z
		 M381.668,170.358c2.76-1.927,6.708-3.609,13.968-3.698c1.469,0,2.891,0,4.365,0.141c8.588,0.698,12.583,4.167,14.838,7.442
		c1.052,1.599,2.938,5.021,2.938,10.036c0,2.953-0.599,9.614-7.167,14.156c-1.698,1.172-3.354,1.969-5.281,2.531
		c-1.885,0.562-4.734,1.12-9.328,1.12c-6.89,0-11.067-1.541-13.687-3.135c-0.875-0.516-2.479-1.594-4.089-3.563
		c-3.448-4.265-3.583-8.578-3.583-10.687C374.642,176.358,379.006,172.187,381.668,170.358z M416.306,442.28h-10.208l0.099-4.125
		V407.88l-0.099-4.125h10.208l-0.104,4.125v30.276L416.306,442.28z M413.983,465.217h-37.546l0.099-4.333v-3.916l-0.099-4.167
		h27.234v-1.484h-27.234l0.099-2.062v-1.323l-0.099-2.062h37.238l-0.099,4.125v3.963l0.099,4.125h-26.728v1.526h27.036l-0.104,2.062
		v1.484L413.983,465.217z M374.364,417.775h14.906v-4.865h-14.854l0.099-2.062v-3.219l-0.099-2.062h24.656l-0.099,4.125v10.974
		l0.099,4.125H384.52v5.323c5.052-0.125,10.562-0.62,14.859-1.281c1.411-0.245,2.677-0.495,3.432-0.745l1.365,7.427
		c-6.567,1.484-16.015,2.474-25.416,2.724l-4.396,0.083l0.104-4.125V421.9L374.364,417.775z M332.619,205.636v12.369l10.885-12.369
		h14.104l-12.724,12.51l14.192,20.578h-13.963l-8.5-12.51l-4.042,3.938v8.573h-10.75v-33.088H332.619z M332.39,200.967v-33.088
		h11.62v33.088H332.39z M342.422,37.79c-0.776-0.328-2.708-0.703-4.958-1.125c-2.526-0.516-5.099-0.938-7.625-1.641
		c-2.755-0.797-5.286-1.781-6.937-4.359c-1.193-1.88-1.286-3.755-1.286-4.599c0-1.781,0.505-3.422,1.422-4.875
		c2.115-3.464,6.62-5.76,14.932-5.76c2.849,0,7.396,0.375,10.104,1.313c1.151,0.375,2.208,0.937,3.172,1.687
		c3.078,2.292,3.536,5.198,3.765,6.651l-11.343,0.656c-0.141-0.375-0.229-0.75-0.417-1.078c-0.734-1.265-2.385-2.015-5.328-2.015
		c-0.182,0-2.984-0.047-4.364,1.125c-0.641,0.516-0.734,1.265-0.734,1.594c0,0.375,0.093,0.984,0.734,1.5
		c1.609,1.313,7.349,2.109,13.14,3.474c3.719,0.891,5.463,1.875,6.703,3.234c0.828,0.844,2.161,2.578,2.161,5.672
		c0,2.25-0.781,4.547-2.161,6.281c-2.708,3.463-7.578,5.385-16.443,5.385c-7.625,0-11.942-1.828-14.333-4.589
		c-2.203-2.484-2.432-5.062-2.62-6.281l11.437-0.281c0.094,0.562,0.323,1.453,1.474,2.297c1.099,0.844,2.708,1.453,5.74,1.453
		c1.198,0,2.666-0.141,3.765-0.703c0.969-0.516,1.839-1.453,1.839-2.625C344.26,39.431,343.943,38.447,342.422,37.79z
		 M331.584,54.598h13.229l14.057,33.088h-12.63l-1.75-5.391h-12.401l-1.745,5.391h-12.771L331.584,54.598z M356.504,92.357v33.088
		h-9.646l-15.39-17.713v17.713h-11.484V92.357h9.598l15.484,17.437V92.357H356.504z M320.881,135.268
		c3.031-3.323,8.312-6.651,18.145-6.651c1.193,0,7.719,0.094,12.448,2.437c1.745,0.891,2.802,1.823,3.354,2.385
		c0.828,0.75,1.609,1.641,2.156,2.578c0.37,0.563,0.828,1.688,0.828,1.688l-11.484,1.266c-1.104-1.219-3.125-2.906-7.12-2.906
		c-1.01,0-3.948,0.047-6.52,1.922c-1.474,1.078-4.182,3.802-4.182,8.77c0,1.026,0.094,4.12,2.162,6.557
		c1.88,2.302,5.005,3.333,7.901,3.333c5.234,0,8.359-3,9.187-4.88c0.042-0.094,0.135-0.516,0.229-0.891h-8.453v-7.495h19.338v19.823
		h-10.062v-3.651c-0.734,0.703-1.239,1.219-2.938,2.151c-2.114,1.172-5.281,2.484-10.797,2.484c-2.068,0-7.719-0.141-12.63-4.026
		c-1.792-1.406-2.802-2.766-3.26-3.516c-1.016-1.5-2.62-4.833-2.62-9.562C316.563,144.882,316.839,139.773,320.881,135.268z
		 M296.309,67.441v7.448h-20.901v5.302h23.015v7.495h-34.635V54.598h34.223v7.401h-22.604v5.442H296.309z M284.387,37.79
		c-0.776-0.328-2.708-0.703-4.958-1.125c-2.526-0.516-5.099-0.938-7.625-1.641c-2.755-0.797-5.286-1.781-6.937-4.359
		c-1.193-1.88-1.286-3.755-1.286-4.599c0-1.781,0.505-3.422,1.422-4.875c2.115-3.464,6.62-5.76,14.932-5.76
		c2.849,0,7.396,0.375,10.104,1.313c1.151,0.375,2.208,0.937,3.172,1.687c3.078,2.292,3.536,5.198,3.765,6.651l-11.343,0.656
		c-0.141-0.375-0.229-0.75-0.417-1.078c-0.734-1.265-2.385-2.015-5.328-2.015c-0.182,0-2.984-0.047-4.365,1.125
		c-0.641,0.516-0.734,1.265-0.734,1.594c0,0.375,0.094,0.984,0.734,1.5c1.609,1.313,7.349,2.109,13.14,3.474
		c3.719,0.891,5.463,1.875,6.703,3.234c0.828,0.844,2.161,2.578,2.161,5.672c0,2.25-0.781,4.547-2.161,6.281
		c-2.708,3.463-7.578,5.385-16.443,5.385c-7.625,0-11.942-1.828-14.333-4.589c-2.203-2.484-2.432-5.062-2.62-6.281l11.437-0.281
		c0.093,0.562,0.323,1.453,1.474,2.297c1.099,0.844,2.708,1.453,5.739,1.453c1.198,0,2.667-0.141,3.766-0.703
		c0.969-0.516,1.839-1.453,1.839-2.625C286.226,39.431,285.908,38.447,284.387,37.79z M265.599,94.839
		c2.76-1.927,6.708-3.609,13.968-3.698c1.469,0,2.891,0,4.365,0.141c8.588,0.698,12.583,4.166,14.838,7.442
		c1.052,1.599,2.938,5.021,2.938,10.036c0,2.953-0.599,9.614-7.167,14.156c-1.698,1.172-3.354,1.969-5.281,2.531
		c-1.885,0.562-4.734,1.12-9.328,1.12c-6.89,0-11.067-1.541-13.687-3.135c-0.875-0.516-2.479-1.594-4.088-3.563
		c-3.448-4.265-3.583-8.578-3.583-10.687C258.573,100.839,262.938,96.668,265.599,94.839z M300.234,442.278h-10.203l0.099-4.125
		v-14.27h-7.578l0.099-2.062v-3.797l-0.099-2.062h7.578v-8.083l-0.099-4.125h10.203l-0.099,4.125v30.275L300.234,442.278z
		 M297.86,452.179c0,4.416-6.464,6.724-18.844,6.724c-12.38,0-18.848-2.308-18.848-6.724c0-4.703,6.468-7.135,18.848-7.135
		C291.396,445.044,297.86,447.476,297.86,452.179z M274.605,155.145c2.021,1.875,4.823,1.875,5.604,1.875
		c0.646,0,3.536-0.047,5.469-1.734c0.823-0.75,1.239-1.641,1.375-1.969c0.693-1.5,0.734-3,0.734-4.593V130.12h11.578v17.338
		c0,4.5,0.135,9.187-3.443,12.609c-2.807,2.677-7.489,4.307-15.713,4.307c-0.781,0-3.906,0-6.75-0.37
		c-1.104-0.141-7.765-0.932-10.797-5.625c-1.792-2.766-1.703-5.953-1.703-7.031V130.12h11.578v18.791
		C272.538,151.302,272.72,153.411,274.605,155.145z M267.12,167.876h11.666v25.031h16.583v8.057H267.12V167.876z M226.353,37.79
		c-0.776-0.328-2.708-0.703-4.958-1.125c-2.526-0.516-5.099-0.938-7.625-1.641c-2.755-0.797-5.286-1.781-6.937-4.359
		c-1.193-1.88-1.286-3.755-1.286-4.599c0-1.781,0.505-3.422,1.422-4.875c2.115-3.464,6.62-5.76,14.932-5.76
		c2.849,0,7.396,0.375,10.104,1.313c1.151,0.375,2.208,0.937,3.172,1.687c3.078,2.292,3.536,5.198,3.765,6.651l-11.343,0.656
		c-0.141-0.375-0.229-0.75-0.417-1.078c-0.734-1.265-2.385-2.015-5.328-2.015c-0.182,0-2.984-0.047-4.365,1.125
		c-0.641,0.516-0.734,1.265-0.734,1.594c0,0.375,0.094,0.984,0.734,1.5c1.609,1.313,7.349,2.109,13.14,3.474
		c3.719,0.891,5.463,1.875,6.703,3.234c0.828,0.844,2.161,2.578,2.161,5.672c0,2.25-0.781,4.547-2.161,6.281
		c-2.708,3.463-7.578,5.385-16.442,5.385c-7.625,0-11.943-1.828-14.333-4.589c-2.203-2.484-2.432-5.062-2.62-6.281l11.437-0.281
		c0.094,0.562,0.323,1.453,1.474,2.297c1.099,0.844,2.708,1.453,5.739,1.453c1.198,0,2.666-0.141,3.765-0.703
		c0.969-0.516,1.839-1.453,1.839-2.625C228.192,39.431,227.874,38.447,226.353,37.79z M202.926,54.601h11.578v18.791
		c0,2.39,0.182,4.5,2.068,6.234c2.021,1.875,4.823,1.875,5.604,1.875c0.646,0,3.536-0.047,5.469-1.734
		c0.823-0.75,1.24-1.641,1.375-1.969c0.693-1.5,0.734-3,0.734-4.593V54.601h11.578v17.338c0,4.5,0.135,9.187-3.443,12.609
		c-2.807,2.677-7.49,4.307-15.713,4.307c-0.781,0-3.906,0-6.75-0.37c-1.104-0.141-7.765-0.932-10.797-5.625
		c-1.792-2.766-1.703-5.953-1.703-7.031V54.601z M239.978,130.117v7.401h-22.604v5.442h20.901v7.448h-20.901v5.302h23.015v7.495
		h-34.634v-33.088H239.978z M211.381,125.445v-7.823h2.661c1.057,0,2.391,0.047,3.219-0.844c0.687-0.703,0.781-1.641,0.781-2.578
		V92.357h11.667v22.687c0,1.125,0.182,5.016-2.573,7.729c-2.479,2.438-5.88,2.672-9.094,2.672H211.381z M207.565,170.358
		c2.76-1.927,6.708-3.609,13.968-3.698c1.469,0,2.891,0,4.364,0.141c8.589,0.698,12.583,4.167,14.838,7.442
		c1.052,1.599,2.938,5.021,2.938,10.036c0,2.953-0.599,9.614-7.166,14.156c-1.698,1.172-3.354,1.969-5.281,2.531
		c-1.885,0.562-4.734,1.12-9.328,1.12c-6.89,0-11.067-1.541-13.687-3.135c-0.875-0.516-2.479-1.594-4.088-3.563
		c-3.448-4.265-3.583-8.578-3.583-10.687C200.539,176.358,204.904,172.187,207.565,170.358z M240.435,205.636v33.088h-9.646
		L215.4,221.01v17.713h-11.484v-33.088h9.599l15.484,17.437v-17.437H240.435z M204.812,248.546
		c3.031-3.323,8.312-6.651,18.145-6.651c1.193,0,7.719,0.094,12.448,2.437c1.745,0.891,2.802,1.823,3.354,2.385
		c0.828,0.75,1.609,1.641,2.156,2.578c0.37,0.563,0.828,1.688,0.828,1.688l-11.484,1.265c-1.104-1.219-3.125-2.906-7.12-2.906
		c-1.01,0-3.948,0.047-6.52,1.922c-1.474,1.078-4.182,3.802-4.182,8.771c0,1.026,0.094,4.12,2.162,6.557
		c1.88,2.302,5.005,3.333,7.901,3.333c5.234,0,8.359-3,9.187-4.88c0.042-0.094,0.135-0.516,0.229-0.891h-8.453v-7.495h19.338v19.823
		h-10.062v-3.651c-0.734,0.703-1.239,1.218-2.937,2.151c-2.115,1.172-5.281,2.484-10.797,2.484c-2.068,0-7.719-0.141-12.63-4.026
		c-1.792-1.406-2.802-2.766-3.26-3.516c-1.016-1.5-2.62-4.833-2.62-9.562C200.495,258.161,200.771,253.051,204.812,248.546z
		 M216.079,404.373h9.802c0.453,5.114,7.932,9.484,16.525,10.515l-4.651,6.932c-6.823-1.156-13.291-3.302-16.776-7.713
		c-3.484,4.411-9.953,6.557-16.775,7.713l-4.651-6.932C208.146,413.857,215.626,409.488,216.079,404.373z M180.24,67.441v7.448
		H159.34v5.302h23.015v7.495H147.72V54.598h34.223v7.401H159.34v5.442H180.24z M168.319,37.79c-0.776-0.328-2.708-0.703-4.958-1.125
		c-2.526-0.516-5.099-0.938-7.625-1.641c-2.755-0.797-5.286-1.781-6.937-4.359c-1.193-1.88-1.286-3.755-1.286-4.599
		c0-1.781,0.505-3.422,1.422-4.875c2.115-3.464,6.62-5.76,14.932-5.76c2.849,0,7.396,0.375,10.104,1.313
		c1.151,0.375,2.208,0.937,3.172,1.687c3.078,2.292,3.536,5.198,3.765,6.651l-11.343,0.656c-0.141-0.375-0.229-0.75-0.417-1.078
		c-0.734-1.265-2.385-2.015-5.328-2.015c-0.182,0-2.984-0.047-4.364,1.125c-0.641,0.516-0.735,1.265-0.735,1.594
		c0,0.375,0.094,0.984,0.735,1.5c1.609,1.313,7.349,2.109,13.14,3.474c3.719,0.891,5.463,1.875,6.703,3.234
		c0.828,0.844,2.161,2.578,2.161,5.672c0,2.25-0.781,4.547-2.161,6.281c-2.708,3.463-7.578,5.385-16.443,5.385
		c-7.625,0-11.942-1.828-14.333-4.589c-2.203-2.484-2.432-5.062-2.62-6.281l11.437-0.281c0.094,0.562,0.323,1.453,1.474,2.297
		c1.099,0.844,2.708,1.453,5.74,1.453c1.198,0,2.666-0.141,3.765-0.703c0.969-0.516,1.839-1.453,1.839-2.625
		C170.157,39.431,169.84,38.447,168.319,37.79z M144.891,92.36h11.578v18.791c0,2.39,0.182,4.5,2.068,6.234
		c2.021,1.875,4.823,1.875,5.604,1.875c0.646,0,3.536-0.047,5.469-1.734c0.823-0.75,1.239-1.641,1.375-1.969
		c0.693-1.5,0.735-3,0.735-4.593V92.36h11.578v17.338c0,4.5,0.135,9.187-3.443,12.609c-2.807,2.677-7.489,4.307-15.713,4.307
		c-0.781,0-3.906,0-6.75-0.37c-1.104-0.141-7.765-0.932-10.797-5.625c-1.792-2.766-1.703-5.953-1.703-7.031V92.36z M182.401,130.117
		v33.088h-9.646l-15.39-17.713v17.713h-11.484v-33.088h9.599l15.484,17.437v-17.437H182.401z M146.778,173.027
		c3.031-3.323,8.312-6.651,18.145-6.651c1.193,0,7.719,0.094,12.447,2.437c1.745,0.891,2.802,1.823,3.354,2.385
		c0.828,0.75,1.609,1.641,2.156,2.578c0.37,0.563,0.828,1.688,0.828,1.688l-11.484,1.266c-1.104-1.219-3.125-2.906-7.12-2.906
		c-1.01,0-3.948,0.047-6.521,1.922c-1.474,1.078-4.182,3.802-4.182,8.771c0,1.026,0.094,4.12,2.161,6.557
		c1.88,2.302,5.005,3.333,7.901,3.333c5.234,0,8.359-3,9.187-4.88c0.042-0.094,0.135-0.516,0.229-0.891h-8.453v-7.495h19.338v19.823
		h-10.062v-3.651c-0.734,0.703-1.24,1.218-2.938,2.151c-2.115,1.172-5.281,2.484-10.797,2.484c-2.068,0-7.719-0.141-12.63-4.026
		c-1.792-1.406-2.802-2.766-3.26-3.516c-1.016-1.5-2.62-4.833-2.62-9.562C142.46,182.642,142.736,177.532,146.778,173.027z
		 M156.931,263.78v12.703h-11.672v-33.088h11.718v12.047h14.146v-12.047h11.76v33.088h-11.76V263.78H156.931z M172.131,238.724
		l-1.745-5.391h-12.401l-1.745,5.391H143.47l14.01-33.088h13.229l14.057,33.088H172.131z M158.044,404.375h9.802
		c0.453,4.578,8.438,7.63,16.776,8.25l-4.495,6.599c-6.823-0.948-13.698-2.974-17.182-6.849c-3.484,3.875-10.359,5.901-17.182,6.849
		l-4.495-6.599C149.607,412.005,157.591,408.953,158.044,404.375z M95.313,42.103h2.662c1.057,0,2.39,0.047,3.219-0.844
		c0.688-0.703,0.781-1.641,0.781-2.578V16.838h11.666v22.687c0,1.125,0.182,5.016-2.573,7.729c-2.479,2.438-5.88,2.672-9.093,2.672
		h-6.662V42.103z M111.87,54.6v33.088h-11.62V54.6H111.87z M87.847,92.357h9.599l15.484,17.437V92.357h11.437v33.088h-9.646
		l-15.39-17.713v17.713H87.847V92.357z M113.641,130.117v22.687c0,1.125,0.182,5.016-2.573,7.729
		c-2.479,2.438-5.88,2.672-9.093,2.672h-6.662v-7.823h2.662c1.057,0,2.39,0.047,3.219-0.844c0.688-0.703,0.781-1.641,0.781-2.578
		v-21.843H113.641z M83.534,412.248l0.104-2.062v-2.802l-0.104-2.062h28.249l-0.104,2.062v2.802l0.104,2.146l-8.943-0.042
		c0.958,3.797,3.787,6.849,8.182,8.292c0.859,0.292,1.823,0.536,2.578,0.62l-4.396,7.094c-5.406-1.234-9.599-3.916-11.422-7.177
		c-1.719,3.302-6.062,6.062-11.724,7.385l-4.396-7.302c0.708-0.083,1.568-0.245,2.427-0.495c4.5-1.359,7.531-4.375,8.489-8.417
		L83.534,412.248z M122.206,218.479v7.448h-20.901v5.302h23.015v7.495H89.686v-33.088h34.223v7.401h-22.603v5.442H122.206z
		 M124.919,432.05h-10.458l0.099-4.125v-19.963l-0.099-4.208h10.458l-0.099,4.208v19.963L124.919,432.05z M30.755,23.395
		c2.849-4.167,8.083-7.963,18.88-7.963c8.817,0,13.828,2.344,16.536,5.385c1.792,1.969,2.479,4.172,2.755,5.062l-10.75,1.922
		c-0.318-0.656-0.505-1.031-0.964-1.641c-1.745-2.297-4.64-3.234-7.349-3.187c-1.104,0-4.776,0.234-7.349,3
		c-1.792,1.969-2.526,4.74-2.526,7.364c0,3.515,1.239,5.625,2.109,6.75c2.531,3.375,5.974,3.469,7.442,3.469
		c4.318,0,6.89-2.203,7.901-3.563c0.37-0.516,0.599-0.891,1.01-1.969l11.073,1.172c-0.37,1.219-1.24,3.937-3.677,6.469
		c-4.177,4.307-10.932,5.385-16.583,5.385c-6.109,0-9.599-1.172-12.031-2.344c-3.219-1.541-9.422-5.62-9.422-15.322
		C27.812,31.65,28.047,27.379,30.755,23.395z M40.862,74.983v12.703H29.19V54.598h11.718v12.047h14.146V54.598h11.76v33.088h-11.76
		V74.983H40.862z M33.462,94.839c2.76-1.927,6.708-3.609,13.968-3.698c1.469,0,2.891,0,4.365,0.141
		c8.588,0.698,12.583,4.166,14.838,7.442c1.052,1.599,2.938,5.021,2.938,10.036c0,2.953-0.599,9.614-7.167,14.156
		c-1.698,1.172-3.354,1.969-5.281,2.531c-1.885,0.562-4.734,1.12-9.328,1.12c-6.89,0-11.067-1.541-13.687-3.135
		c-0.875-0.516-2.479-1.594-4.088-3.563c-3.448-4.265-3.583-8.578-3.583-10.687C26.436,100.839,30.801,96.668,33.462,94.839z
		 M33.462,132.599c2.76-1.927,6.708-3.609,13.968-3.698c1.469,0,2.891,0,4.365,0.141c8.588,0.698,12.583,4.167,14.838,7.442
		c1.052,1.599,2.938,5.021,2.938,10.036c0,2.953-0.599,9.614-7.167,14.156c-1.698,1.172-3.354,1.969-5.281,2.531
		c-1.885,0.562-4.734,1.12-9.328,1.12c-6.89,0-11.067-1.541-13.687-3.135c-0.875-0.516-2.479-1.594-4.088-3.563
		c-3.448-4.265-3.583-8.578-3.583-10.687C26.436,138.599,30.801,134.427,33.462,132.599z M66.332,167.876v33.088h-9.646
		l-15.39-17.713v17.713H29.812v-33.088h9.599l15.484,17.437v-17.437H66.332z M30.709,210.787c3.031-3.323,8.312-6.651,18.145-6.651
		c1.193,0,7.719,0.094,12.448,2.437c1.745,0.891,2.802,1.823,3.354,2.385c0.828,0.75,1.609,1.641,2.156,2.578
		c0.37,0.563,0.828,1.688,0.828,1.688l-11.484,1.265c-1.104-1.219-3.125-2.906-7.12-2.906c-1.01,0-3.948,0.047-6.52,1.922
		c-1.474,1.078-4.182,3.802-4.182,8.771c0,1.026,0.094,4.12,2.162,6.557c1.88,2.302,5.005,3.333,7.901,3.333
		c5.234,0,8.359-3,9.187-4.88c0.042-0.094,0.135-0.516,0.229-0.891H49.36v-7.495h19.338v19.823H58.636v-3.651
		c-0.734,0.703-1.239,1.218-2.938,2.151c-2.114,1.172-5.281,2.484-10.797,2.484c-2.068,0-7.719-0.141-12.63-4.026
		c-1.792-1.406-2.802-2.766-3.26-3.516c-1.016-1.5-2.62-4.833-2.62-9.562C26.392,220.401,26.668,215.292,30.709,210.787z
		 M30.709,248.546c3.031-3.323,8.312-6.651,18.145-6.651c1.193,0,7.719,0.094,12.448,2.437c1.745,0.891,2.802,1.823,3.354,2.385
		c0.828,0.75,1.609,1.641,2.156,2.578c0.37,0.563,0.828,1.688,0.828,1.688l-11.484,1.265c-1.104-1.219-3.125-2.906-7.12-2.906
		c-1.01,0-3.948,0.047-6.52,1.922c-1.474,1.078-4.182,3.802-4.182,8.771c0,1.026,0.094,4.12,2.162,6.557
		c1.88,2.302,5.005,3.333,7.901,3.333c5.234,0,8.359-3,9.187-4.88c0.042-0.094,0.135-0.516,0.229-0.891H49.36v-7.495h19.338v19.823
		H58.636v-3.651c-0.734,0.703-1.239,1.218-2.938,2.151c-2.114,1.172-5.281,2.484-10.797,2.484c-2.068,0-7.719-0.141-12.63-4.026
		c-1.792-1.406-2.802-2.766-3.26-3.516c-1.016-1.5-2.62-4.833-2.62-9.562C26.392,258.161,26.668,253.051,30.709,248.546z
		 M63.786,348.865c-2.807,2.677-7.49,4.307-15.713,4.307c-0.781,0-3.906,0-6.75-0.37c-1.104-0.141-7.765-0.932-10.797-5.625
		c-1.792-2.766-1.703-5.953-1.703-7.031v-21.229H40.4v18.791c0,2.391,0.182,4.5,2.068,6.234c2.021,1.875,4.823,1.875,5.604,1.875
		c0.646,0,3.536-0.047,5.469-1.734c0.823-0.75,1.24-1.641,1.375-1.969c0.693-1.5,0.734-3,0.734-4.593v-18.604h11.578v17.338
		C67.228,340.755,67.363,345.443,63.786,348.865z M66.332,356.674v33.088h-9.646l-15.39-17.713v17.713H29.812v-33.088h9.599
		l15.484,17.437v-17.437H66.332z M64.172,293.998v7.448H43.271v5.302h23.015v7.495H31.652v-33.088h34.223v7.401H43.271v5.442H64.172
		z M39.652,412.125H27.47l0.104-2.062v-1.568l-0.104-2.062h14.354v-0.739l-0.151-1.734h10.406l-0.151,1.734v0.739h14.354
		l-0.104,2.062v1.568l0.104,2.062H54.1c2.833,1.943,8.089,2.479,13.948,2.891l-4.396,6.104c-7.932-0.864-14.651-2.969-16.775-5.323
		c-2.12,2.354-8.844,4.458-16.776,5.323l-4.396-6.104C31.564,414.604,36.819,414.068,39.652,412.125z M66.48,483.118H28.231
		l0.099-4.125v-4.953l-0.099-4.125h10.812l-0.099,4.125v2.271H66.48l-0.099,2.063v2.682L66.48,483.118z M69.615,467.072H24.137
		l0.104-2.062v-2.682l-0.104-2.062h29.51c0.557-2.146,1.161-5.895,1.364-7.385h-26.78l0.099-2.062v-2.885l-0.099-2.062h38.202
		c0,0.578-0.354,3.589-0.458,4.125c-0.401,2.766-1.109,6.807-2.021,10.271h5.661l-0.099,2.062v2.682L69.615,467.072z
		 M69.615,427.843H51.881v1.651c8.739,0.536,14.046,2.557,14.046,6.849c0,4.203-5.052,6.968-19,6.968
		c-14,0-19.051-2.765-19.051-6.968c0-4.292,5.307-6.313,14.046-6.849v-1.651H24.137l0.104-2.062v-1.854l-0.104-2.062h45.478
		l-0.099,2.062v1.854L69.615,427.843z M101.372,479.278c-3.786-2.39-6.416-5.401-7.729-8.864c-1.115,3.422-3.942,6.599-8.239,9.239
		l-3.74-7.51c0.708-0.328,1.516-0.99,2.375-1.896c3.187-3.344,4.854-8.417,5.255-15.755h-6.516l0.099-2.062v-3.219l-0.099-2.062
		h21.171l-0.099,2.062v3.219l0.099,2.062h-6.015c0.458,7.297,2.224,12.166,5.156,15.468c0.807,0.906,1.667,1.563,2.427,2.021
		L101.372,479.278z M126.132,483.939h-9.349l0.104-4.125v-12h-2.328v10.765l0.104,4.125h-8.844l0.099-4.125v-29.249l-0.099-4.125
		h8.844l-0.104,4.125v10.562h2.328v-10.765l-0.104-4.125h9.349l-0.099,4.125v30.687L126.132,483.939z M126.388,442.279H86.769
		l0.104-4.125v-4.536l-0.104-4.125h10.713l-0.099,4.125v1.031h29.005l-0.104,2.062v3.505L126.388,442.279z M114.097,200.964
		l-1.745-5.391H99.952l-1.745,5.391H85.436l14.01-33.088h13.229l14.057,33.088H114.097z M140.206,420.255h45.478l-0.099,2.062v2.266
		l0.099,2.062h-45.478l0.099-2.062v-2.266L140.206,420.255z M181.997,435.682c0,4.62-5.057,7.63-19.052,7.63
		c-13.995,0-19.052-3.01-19.052-7.63c0-5.49,7.38-7.63,19.052-7.63C174.617,428.052,181.997,430.192,181.997,435.682z
		 M154.101,479.53c-8.64,0-13.135-5.609-13.135-16.416c0-10.812,4.495-16.421,13.135-16.421s13.14,5.609,13.14,16.421
		C167.242,473.92,162.742,479.53,154.101,479.53z M186.694,467.197h-5.156v12.208l0.104,4.125h-10.208l0.099-4.125v-30.276
		l-0.099-4.125h10.208l-0.104,4.125v10.146h5.156l-0.099,2.063v3.796L186.694,467.197z M197.735,461.007
		c0.76-0.125,1.666-0.286,2.375-0.495c4.396-1.239,7.38-3.88,8.39-7.427h-8.541l0.099-2.062v-2.802l-0.099-2.062h26.984
		l-0.104,2.062v2.802l0.052,1.484h4.448v-3.38l-0.099-4.125h10.203l-0.099,4.125v14.354l0.099,4.125H231.24l0.099-4.125v-4.083
		h-4.953l0.104-2.062v-2.766l-0.052-1.484h-7.932c1.01,3.177,3.687,5.609,7.63,6.766c0.656,0.208,1.615,0.411,2.526,0.536
		l-4.094,6.89c-5.156-1.073-9.25-3.427-10.969-6.354c-1.713,3.302-5.958,6.062-11.52,7.385L197.735,461.007z M222.344,484.559
		c-14.755,0-20.109-3.297-20.109-8.291c0-6.021,7.781-8.328,20.109-8.328c12.328,0,20.109,2.307,20.109,8.328
		C242.453,481.262,237.099,484.559,222.344,484.559z M243.719,431.102h-17.635v7.052l0.099,4.125h-10.406l0.099-4.125v-7.052
		h-17.635l0.099-2.062v-3.135l-0.099-2.062h45.478l-0.099,2.062v3.135L243.719,431.102z M259.762,428.05
		c4.297-3.755,6.416-10.354,6.416-19.14c0-1.031-0.047-2.104-0.099-3.302h10.307c-0.099,1.198-0.099,2.271-0.099,3.302
		c0,8.416,2.271,14.848,6.567,18.812c1.162,1.067,2.526,1.896,3.792,2.515l-4.703,7.505c-4.849-2.104-8.739-5.692-10.661-9.901
		c-2.021,4.375-5.964,8.13-10.812,10.271l-4.698-7.505C257.084,429.987,258.6,429.081,259.762,428.05z M301.75,465.34h-17.734v1.073
		h13.593l-0.104,4.125v2.516l0.104,4.125h-27.239v1.318h28.551l-0.099,2.062v1.323l0.099,2.062h-38.556l0.104-4.125v-2.932
		l-0.104-4.167h27.744v-1.276h-27.744l0.104-2.062v-0.906l-0.104-2.062h13.698v-1.073h-17.786l0.099-2.062v-1.448l-0.099-2.062
		h45.473l-0.099,2.062v1.448L301.75,465.34z M315.976,418.314c5.156-2.474,7.833-6.437,7.833-11.552
		c0-0.536-0.052-1.276-0.099-2.062h10.609c-0.052,0.828-0.099,1.609-0.099,2.062c0,4.828,2.474,8.5,7.224,10.687
		c0.807,0.37,1.771,0.698,2.781,0.99l-4.093,7.505c-5.307-1.651-9.297-4.495-11.016-7.63c-1.869,3.547-5.911,6.641-11.218,8.458
		l-4.599-7.51C314.158,419.095,315.116,418.726,315.976,418.314z M315.069,456.183c0-6.271,5.557-10.437,13.895-10.437
		c8.385,0,13.942,4.167,13.942,10.437c0,6.266-5.557,10.432-13.942,10.432C320.627,466.615,315.069,462.448,315.069,456.183z
		 M357.006,484.146h-10.208l0.104-4.125v-4.411H318.96l0.099-2.062v-2.682l-0.099-2.062h38.046l-0.099,4.125v7.094L357.006,484.146z
		 M357.006,467.604h-10.208l0.104-4.125v-14.354l-0.104-4.125h10.208l-0.099,4.125v14.354L357.006,467.604z M337.402,443.313
		c-14.4,0-19.609-3.302-19.609-8.291c0-6.026,7.583-8.333,19.609-8.333c12.026,0,19.604,2.307,19.604,8.333
		C357.006,440.011,351.803,443.313,337.402,443.313z M360.542,419.387h-5.099v2.724l0.099,4.125h-10.208l0.099-4.125v-14.234
		l-0.099-4.125h10.208l-0.099,4.125v4.25h5.099l-0.099,2.062v3.135L360.542,419.387z M417.822,473.795h-17.635v5.609l0.099,4.125
		H389.88l0.099-4.125v-5.609h-17.635l0.099-2.062v-2.724l-0.099-2.062h45.478l-0.104,2.062v2.724L417.822,473.795z M430.885,447.973
		h8.739v-0.62l-0.151-2.062h10.562l-0.151,2.062v0.62h8.739l-0.099,2.062v1.979l0.099,2.062h-27.739l0.099-2.062v-1.979
		L430.885,447.973z M434.068,435.681c0-5.484,7.375-7.63,19.046-7.63c11.677,0,19.052,2.146,19.052,7.63
		c0,4.62-5.052,7.63-19.052,7.63C439.119,443.311,434.068,440.301,434.068,435.681z M431.589,461.707
		c0-4.245,4.906-6.766,13.14-6.766c8.286,0,13.187,2.521,13.187,6.766c0,4.208-4.901,6.724-13.187,6.724
		C436.495,468.43,431.589,465.915,431.589,461.707z M473.582,484.149h-10.208l0.099-4.125v-3.177H435.13l0.099-2.062v-2.682
		l-0.099-2.062h38.452l-0.104,4.125v5.859L473.582,484.149z M473.582,468.639h-9.953l0.047-1.239h-4.193l0.099-2.062v-2.76
		l-0.099-2.062h4.244v-1.364h-4.244l0.099-2.062v-2.76l-0.099-2.062h4.244v-3.135l-0.099-4.125h9.953l-0.104,4.125v15.385
		L473.582,468.639z M475.853,427.062H430.38l0.099-2.062v-2.271l-0.099-2.062h17.786v-1.651h-13.698l0.104-4.125v-6.146
		l-0.104-4.125h37.244l-0.104,2.062v2.021l0.104,2.062h-26.531v2.062h26.781l-0.099,2.062v2.062l0.099,2.062h-13.844v1.651h17.734
		l-0.099,2.062v2.271L475.853,427.062z"/>
	<path style="fill:#FF0000;" d="M345.636,433.616c-2.224-0.536-5.76-0.864-8.234-0.864c-2.479,0-6.015,0.328-8.239,0.864
		c-0.656,0.167-1.109,0.495-1.109,1.156c0,0.661,0.453,0.99,1.109,1.156c2.224,0.536,5.76,0.865,8.239,0.865
		c2.474,0,6.01-0.328,8.234-0.865c0.656-0.167,1.115-0.495,1.115-1.156C346.751,434.11,346.293,433.782,345.636,433.616z"/>
</g>
</svg>
