<?xml version="1.0" encoding="iso-8859-1"?>
<!-- Generator: Adobe Illustrator 30.0.0, SVG Export Plug-In . SVG Version: 9.03 Build 0)  -->
<svg version="1.1" id="&#xB808;&#xC774;&#xC5B4;_1" xmlns="http://www.w3.org/2000/svg" xmlns:xlink="http://www.w3.org/1999/xlink"
	 x="0px" y="0px" viewBox="0 0 500 500" style="enable-background:new 0 0 500 500;" xml:space="preserve">
<g>
	<path style="fill:#FF0000;" d="M396.364,194.789c0.552,0,2.62,0,4.364-0.797c3.63-1.646,5.099-5.864,5.099-9.614
		c0-4.218-1.745-6.89-2.943-7.968c-0.458-0.469-1.562-1.312-3.12-1.88c-0.828-0.281-1.703-0.516-3.448-0.516
		c-1.516,0-2.755,0.141-4.182,0.755c-3.812,1.641-5.557,5.624-5.557,9.656c0,0.609,0.047,2.297,0.646,4.031
		C389.151,194.367,394.39,194.789,396.364,194.789z"/>
	<path style="fill:#FF0000;" d="M154.104,454.857c-1.417,0-2.224,0.614-2.625,1.937c-0.505,1.609-0.911,4.083-0.911,6.187
		c0,2.146,0.406,4.62,0.911,6.187c0.453,1.318,1.26,1.937,2.625,1.937c1.312,0,2.125-0.62,2.578-1.937
		c0.557-1.692,0.958-4.166,0.958-6.187c0-2.021-0.401-4.5-0.958-6.187C156.276,455.472,155.468,454.857,154.104,454.857z"/>
	<polygon style="fill:#FF0000;" points="338.24,63.788 334.516,74.996 342.053,74.996 	"/>
	<path style="fill:#FF0000;" d="M48.171,157.031c0.552,0,2.62,0,4.364-0.797c3.63-1.646,5.099-5.864,5.099-9.614
		c0-4.218-1.744-6.89-2.943-7.968c-0.458-0.469-1.562-1.312-3.12-1.88c-0.828-0.281-1.703-0.516-3.448-0.516
		c-1.516,0-2.755,0.141-4.182,0.755c-3.812,1.641-5.557,5.625-5.557,9.656c0,0.609,0.047,2.297,0.646,4.031
		C40.958,156.609,46.197,157.031,48.171,157.031z"/>
	<path style="fill:#FF0000;" d="M230.983,474.859c-2.323-0.537-6.062-0.865-8.64-0.865c-2.578,0-6.317,0.328-8.64,0.865
		c-0.76,0.167-1.213,0.495-1.213,1.156c0,0.661,0.453,0.99,1.213,1.156c2.323,0.537,6.062,0.865,8.64,0.865
		c2.578,0,6.317-0.328,8.64-0.865c0.76-0.167,1.214-0.495,1.214-1.156C232.197,475.354,231.744,475.026,230.983,474.859z"/>
	<path style="fill:#FF0000;" d="M155.166,434.603c-0.557,0.125-1.01,0.328-1.01,0.865c0,0.495,0.453,0.786,1.01,0.87
		c2.12,0.411,5.458,0.656,7.781,0.656c2.323,0,5.661-0.245,7.781-0.656c0.557-0.083,1.01-0.375,1.01-0.87
		c0-0.537-0.453-0.74-1.01-0.865c-2.12-0.453-5.458-0.661-7.781-0.661C160.624,433.942,157.286,434.15,155.166,434.603z"/>
	<path style="fill:#FF0000;" d="M396.364,157.031c0.552,0,2.62,0,4.364-0.797c3.63-1.646,5.099-5.864,5.099-9.614
		c0-4.218-1.745-6.89-2.943-7.968c-0.458-0.469-1.562-1.312-3.12-1.88c-0.828-0.281-1.703-0.516-3.448-0.516
		c-1.516,0-2.755,0.141-4.182,0.755c-3.812,1.641-5.557,5.625-5.557,9.656c0,0.609,0.047,2.297,0.646,4.031
		C389.151,156.609,394.39,157.031,396.364,157.031z"/>
	<path style="fill:#FF0000;" d="M280.3,119.273c0.552,0,2.62,0,4.364-0.797c3.63-1.646,5.099-5.864,5.099-9.614
		c0-4.218-1.745-6.89-2.943-7.968c-0.458-0.469-1.562-1.312-3.12-1.88c-0.828-0.281-1.703-0.516-3.448-0.516
		c-1.516,0-2.755,0.141-4.182,0.755c-3.812,1.641-5.557,5.625-5.557,9.656c0,0.609,0.047,2.297,0.646,4.031
		C273.086,118.851,278.326,119.273,280.3,119.273z"/>
	<polygon style="fill:#FF0000;" points="160.42,226.029 167.956,226.029 164.144,214.821 	"/>
	<path style="fill:#FF0000;" d="M48.171,119.273c0.552,0,2.62,0,4.364-0.797c3.63-1.646,5.099-5.864,5.099-9.614
		c0-4.218-1.744-6.89-2.943-7.968c-0.458-0.469-1.562-1.312-3.12-1.88c-0.828-0.281-1.703-0.516-3.448-0.516
		c-1.516,0-2.755,0.141-4.182,0.755c-3.812,1.641-5.557,5.625-5.557,9.656c0,0.609,0.047,2.297,0.646,4.031
		C40.958,118.851,46.197,119.273,48.171,119.273z"/>
	<path style="fill:#FF0000;" d="M39.201,435.426c-0.656,0.084-1.057,0.209-1.057,0.703c0,0.495,0.401,0.62,1.057,0.74
		c2.073,0.333,5.406,0.536,7.734,0.536c2.271,0,5.609-0.203,7.677-0.536c0.661-0.12,1.062-0.245,1.062-0.74
		c0-0.495-0.401-0.62-1.062-0.703c-2.067-0.328-5.406-0.536-7.677-0.536C44.606,434.89,41.274,435.098,39.201,435.426z"/>
	<path style="fill:#FF0000;" d="M222.267,194.789c0.552,0,2.62,0,4.364-0.797c3.63-1.646,5.099-5.864,5.099-9.614
		c0-4.218-1.745-6.89-2.943-7.968c-0.458-0.469-1.563-1.312-3.12-1.88c-0.828-0.281-1.703-0.516-3.448-0.516
		c-1.515,0-2.755,0.141-4.182,0.755c-3.812,1.641-5.557,5.624-5.557,9.656c0,0.609,0.047,2.297,0.646,4.031
		C215.054,194.367,220.293,194.789,222.267,194.789z"/>
	<path style="fill:#FF0000;" d="M271.686,451.267c-0.557,0.125-0.963,0.328-0.963,0.906c0,0.495,0.406,0.703,0.963,0.828
		c1.969,0.453,5.151,0.656,7.328,0.656c2.172,0,5.354-0.203,7.322-0.656c0.557-0.125,0.963-0.333,0.963-0.828
		c0-0.578-0.406-0.781-0.963-0.906c-1.969-0.453-5.151-0.661-7.322-0.661C276.836,450.605,273.654,450.814,271.686,451.267z"/>
	<path style="fill:#FF0000;" d="M332.95,456.176c0-2.021-1.463-3.218-3.989-3.218s-3.995,1.198-3.995,3.218s1.469,3.213,3.995,3.213
		S332.95,458.197,332.95,456.176z"/>
	<polygon style="fill:#FF0000;" points="102.388,188.27 109.924,188.27 106.112,177.063 	"/>
	<path style="fill:#FF0000;" d="M403.32,104.786c0.599-0.75,0.646-1.5,0.646-1.875c0-0.281-0.047-1.036-0.505-1.693
		c-0.781-1.172-2.068-1.359-3.307-1.359h-9.645v6.099h8.723C401.44,105.958,402.586,105.677,403.32,104.786z"/>
	<path style="fill:#FF0000;" d="M454.396,81.515c0.552,0,2.62,0,4.364-0.797c3.63-1.646,5.099-5.864,5.099-9.614
		c0-4.218-1.744-6.89-2.943-7.968c-0.458-0.469-1.562-1.312-3.12-1.88c-0.828-0.281-1.703-0.516-3.448-0.516
		c-1.516,0-2.755,0.14-4.182,0.755c-3.812,1.641-5.557,5.625-5.557,9.656c0,0.609,0.047,2.297,0.646,4.031
		C447.182,81.093,452.422,81.515,454.396,81.515z"/>
	<path style="fill:#FF0000;" d="M447.699,463.065c0.76-0.25,1.011-0.62,1.011-1.156c0-0.536-0.25-0.906-1.011-1.156
		c-0.755-0.245-1.969-0.37-2.979-0.37c-1.011,0-2.224,0.125-2.932,0.37c-0.755,0.25-1.01,0.62-1.01,1.156
		c0,0.537,0.255,0.906,1.01,1.156c0.709,0.245,1.922,0.37,2.932,0.37C445.73,463.434,446.944,463.309,447.699,463.065z"/>
	<path style="fill:#FF0000;" d="M460.891,436.337c0.552-0.083,1.01-0.375,1.01-0.87c0-0.537-0.458-0.74-1.01-0.865
		c-2.125-0.453-5.458-0.661-7.786-0.661c-2.323,0-5.656,0.209-7.781,0.661c-0.552,0.125-1.01,0.328-1.01,0.865
		c0,0.495,0.458,0.786,1.01,0.87c2.125,0.411,5.458,0.656,7.781,0.656C455.433,436.993,458.766,436.748,460.891,436.337z"/>
	<path style="fill:#FF0000;" d="M345.631,433.61c-2.224-0.536-5.76-0.864-8.234-0.864c-2.479,0-6.015,0.328-8.239,0.864
		c-0.656,0.167-1.109,0.495-1.109,1.156c0,0.661,0.453,0.99,1.109,1.156c2.224,0.536,5.76,0.865,8.239,0.865
		c2.474,0,6.01-0.328,8.234-0.865c0.656-0.167,1.114-0.495,1.114-1.156C346.746,434.105,346.288,433.777,345.631,433.61z"/>
	<path style="fill:#FF0000;" d="M0.01,0.014v499.969h499.969V0.014H0.01z M436.047,16.852h18.416c1.286,0,2.573,0.047,3.859,0.141
		c7.536,0.651,10.843,3.885,12.77,6.744c2.755,4.031,2.849,8.249,2.849,10.03c0,1.5-0.135,6.89-3.443,10.828
		c-0.552,0.703-1.703,1.875-3.63,3c-0.693,0.375-2.162,1.172-4.135,1.687c-1.656,0.417-2.849,0.651-6.109,0.651h-20.577V16.852z
		 M439.693,57.089c2.76-1.927,6.708-3.609,13.968-3.698c1.469,0,2.891,0,4.364,0.141c8.588,0.698,12.583,4.166,14.838,7.442
		c1.052,1.599,2.937,5.021,2.937,10.036c0,2.953-0.599,9.614-7.166,14.155c-1.698,1.172-3.354,1.969-5.281,2.531
		c-1.885,0.562-4.734,1.12-9.328,1.12c-6.89,0-11.067-1.541-13.687-3.135c-0.875-0.516-2.479-1.593-4.088-3.562
		c-3.448-4.265-3.583-8.577-3.583-10.687C432.668,63.088,437.032,58.917,439.693,57.089z M459.563,318.913h14.103l-12.723,12.51
		L475.135,352h-13.963l-8.499-12.51l-4.041,3.937V352h-10.749v-33.087h10.796v12.369L459.563,318.913z M472.078,309.981
		c-4.177,4.307-10.932,5.385-16.582,5.385c-6.109,0-9.598-1.172-12.03-2.344c-3.219-1.541-9.421-5.619-9.421-15.322
		c0-1.734,0.234-6.005,2.943-9.989c2.849-4.166,8.083-7.963,18.879-7.963c8.817,0,13.827,2.344,16.535,5.385
		c1.792,1.969,2.479,4.172,2.755,5.062l-10.749,1.922c-0.318-0.656-0.505-1.031-0.963-1.641c-1.745-2.297-4.641-3.234-7.349-3.187
		c-1.104,0-4.776,0.234-7.349,3c-1.792,1.969-2.526,4.739-2.526,7.364c0,3.515,1.239,5.625,2.109,6.75
		c2.531,3.375,5.974,3.469,7.442,3.469c4.317,0,6.89-2.203,7.9-3.562c0.37-0.516,0.599-0.891,1.01-1.969l11.072,1.172
		C475.385,304.731,474.516,307.45,472.078,309.981z M461.285,179.927v-12.046h11.76v33.087h-11.76v-12.702h-14.192v12.702h-11.671
		v-33.087h11.718v12.046H461.285z M447.206,205.64l7.073,13.166l7.077-13.166h13.411l-14.697,23.248v9.838h-11.531v-9.838
		l-14.884-23.248H447.206z M448.699,268.425c2.021,1.875,4.823,1.875,5.604,1.875c0.646,0,3.536-0.047,5.468-1.734
		c0.823-0.75,1.239-1.641,1.375-1.969c0.693-1.5,0.734-3,0.734-4.593V243.4h11.578v17.337c0,4.5,0.135,9.187-3.443,12.609
		c-2.807,2.677-7.489,4.307-15.712,4.307c-0.781,0-3.906,0-6.75-0.37c-1.104-0.141-7.765-0.932-10.796-5.624
		c-1.792-2.766-1.703-5.953-1.703-7.031V243.4h11.578v18.791C446.632,264.581,446.814,266.69,448.699,268.425z M472.563,92.365
		v33.087h-9.645l-15.39-17.712v17.712h-11.484V92.365h9.598l15.484,17.437V92.365H472.563z M436.94,135.274
		c3.031-3.323,8.312-6.651,18.145-6.651c1.193,0,7.718,0.094,12.447,2.437c1.745,0.891,2.802,1.823,3.354,2.385
		c0.828,0.75,1.609,1.641,2.156,2.578c0.37,0.563,0.828,1.688,0.828,1.688l-11.484,1.265c-1.104-1.219-3.125-2.906-7.119-2.906
		c-1.01,0-3.948,0.047-6.52,1.922c-1.474,1.078-4.182,3.802-4.182,8.77c0,1.026,0.094,4.12,2.161,6.557
		c1.88,2.302,5.005,3.333,7.9,3.333c5.234,0,8.359-3,9.187-4.88c0.042-0.094,0.135-0.516,0.229-0.891h-8.453v-7.494h19.337v19.822
		h-10.062v-3.651c-0.734,0.703-1.239,1.219-2.937,2.151c-2.114,1.172-5.281,2.484-10.796,2.484c-2.067,0-7.718-0.141-12.629-4.026
		c-1.792-1.406-2.802-2.765-3.26-3.516c-1.016-1.5-2.62-4.833-2.62-9.562C432.623,144.888,432.899,139.779,436.94,135.274z
		 M378.837,16.849h23.889c4.364,0,8.541,0.328,11.161,4.541c0.599,0.984,1.656,2.953,1.656,5.958c0,1.547-0.323,5.953-4.411,8.244
		c-0.781,0.469-1.38,0.703-3.031,1.125l8.083,13.218h-12.817l-6.708-12.046h-6.151v12.046h-11.671V16.849z M402.037,54.609v33.087
		h-11.619V54.609H402.037z M378.837,92.365h23.889c4.364,0,8.541,0.328,11.161,4.541c0.599,0.984,1.656,2.953,1.656,5.958
		c0,1.547-0.323,5.953-4.411,8.244c-0.781,0.469-1.38,0.703-3.031,1.125l8.083,13.218h-12.817l-6.708-12.046h-6.151v12.046h-11.671
		V92.365z M381.662,132.605c2.76-1.927,6.708-3.609,13.968-3.698c1.469,0,2.89,0,4.364,0.141c8.588,0.698,12.582,4.166,14.838,7.442
		c1.052,1.599,2.937,5.021,2.937,10.036c0,2.953-0.599,9.614-7.166,14.155c-1.698,1.172-3.354,1.969-5.281,2.531
		c-1.885,0.562-4.734,1.12-9.327,1.12c-6.89,0-11.067-1.541-13.687-3.135c-0.875-0.516-2.479-1.593-4.088-3.562
		c-3.448-4.265-3.583-8.577-3.583-10.687C374.636,138.605,379,134.433,381.662,132.605z M381.662,170.363
		c2.76-1.927,6.708-3.609,13.968-3.698c1.469,0,2.89,0,4.364,0.141c8.588,0.698,12.582,4.166,14.838,7.442
		c1.052,1.599,2.937,5.021,2.937,10.036c0,2.953-0.599,9.614-7.166,14.155c-1.698,1.172-3.354,1.969-5.281,2.531
		c-1.885,0.562-4.734,1.12-9.327,1.12c-6.89,0-11.067-1.541-13.687-3.135c-0.875-0.516-2.479-1.593-4.088-3.562
		c-3.448-4.265-3.583-8.577-3.583-10.687C374.636,176.363,379,172.191,381.662,170.363z M416.298,442.274H406.09l0.099-4.125
		v-30.274l-0.099-4.125h10.207l-0.104,4.125v30.274L416.298,442.274z M413.975,465.21h-37.544l0.099-4.333v-3.916l-0.099-4.167
		h27.233v-1.484h-27.233l0.099-2.062v-1.323l-0.099-2.062h37.237l-0.099,4.125v3.964l0.099,4.125H386.94v1.526h27.035l-0.104,2.062
		v1.484L413.975,465.21z M374.358,417.771h14.905v-4.864H374.41l0.099-2.062v-3.218l-0.099-2.062h24.655l-0.099,4.125v10.973
		l0.099,4.125h-14.551v5.323c5.052-0.125,10.562-0.62,14.858-1.281c1.411-0.245,2.677-0.495,3.432-0.745l1.365,7.427
		c-6.567,1.484-16.015,2.474-25.415,2.724l-4.396,0.083l0.104-4.125v-12.296L374.358,417.771z M332.614,205.639v12.369
		l10.885-12.369h14.103l-12.723,12.51l14.192,20.577h-13.963l-8.5-12.51l-4.041,3.937v8.572h-10.749v-33.087H332.614z
		 M332.385,200.97v-33.087h11.619v33.087H332.385z M342.416,37.8c-0.776-0.328-2.708-0.703-4.958-1.125
		c-2.526-0.516-5.099-0.938-7.624-1.641c-2.755-0.797-5.281-1.781-6.937-4.359c-1.193-1.88-1.286-3.755-1.286-4.599
		c0-1.781,0.505-3.422,1.422-4.875c2.114-3.464,6.619-5.76,14.931-5.76c2.849,0,7.395,0.375,10.104,1.312
		c1.151,0.375,2.208,0.937,3.172,1.687c3.078,2.292,3.536,5.198,3.765,6.651l-11.343,0.656c-0.141-0.375-0.229-0.75-0.417-1.078
		c-0.734-1.265-2.385-2.015-5.328-2.015c-0.182,0-2.984-0.047-4.364,1.125c-0.641,0.516-0.734,1.265-0.734,1.593
		c0,0.375,0.093,0.984,0.734,1.5c1.609,1.312,7.349,2.109,13.14,3.474c3.718,0.891,5.463,1.875,6.703,3.234
		c0.828,0.844,2.161,2.578,2.161,5.672c0,2.25-0.781,4.547-2.161,6.281c-2.708,3.463-7.578,5.385-16.442,5.385
		c-7.624,0-11.942-1.828-14.332-4.588c-2.203-2.484-2.432-5.062-2.62-6.281l11.442-0.281c0.089,0.562,0.318,1.453,1.469,2.297
		c1.099,0.844,2.708,1.453,5.74,1.453c1.198,0,2.666-0.14,3.765-0.703c0.969-0.516,1.839-1.453,1.839-2.625
		C344.255,39.44,343.937,38.456,342.416,37.8z M331.579,54.607h13.228l14.057,33.087h-12.635l-1.745-5.39h-12.4l-1.745,5.39h-12.77
		L331.579,54.607z M356.499,92.365v33.087h-9.645l-15.39-17.712v17.712H319.98V92.365h9.598l15.484,17.437V92.365H356.499z
		 M320.876,135.274c3.031-3.323,8.312-6.651,18.145-6.651c1.193,0,7.718,0.094,12.447,2.437c1.744,0.891,2.802,1.823,3.354,2.385
		c0.828,0.75,1.609,1.641,2.156,2.578c0.37,0.563,0.828,1.688,0.828,1.688l-11.484,1.265c-1.104-1.219-3.125-2.906-7.119-2.906
		c-1.01,0-3.948,0.047-6.52,1.922c-1.474,1.078-4.182,3.802-4.182,8.77c0,1.026,0.094,4.12,2.162,6.557
		c1.88,2.302,5.005,3.333,7.9,3.333c5.234,0,8.359-3,9.187-4.88c0.042-0.094,0.135-0.516,0.229-0.891h-8.453v-7.494h19.337v19.822
		h-10.062v-3.651c-0.734,0.703-1.239,1.219-2.937,2.151c-2.115,1.172-5.281,2.484-10.796,2.484c-2.068,0-7.719-0.141-12.63-4.026
		c-1.792-1.406-2.802-2.765-3.26-3.516c-1.016-1.5-2.62-4.833-2.62-9.562C316.559,144.888,316.835,139.779,320.876,135.274z
		 M296.306,67.45v7.447h-20.9v5.302h23.014v7.494h-34.633V54.607h34.222v7.401h-22.603v5.442H296.306z M284.385,37.8
		c-0.776-0.328-2.708-0.703-4.958-1.125c-2.526-0.516-5.099-0.938-7.624-1.641c-2.755-0.797-5.286-1.781-6.937-4.359
		c-1.193-1.88-1.286-3.755-1.286-4.599c0-1.781,0.505-3.422,1.422-4.875c2.114-3.464,6.62-5.76,14.931-5.76
		c2.849,0,7.396,0.375,10.104,1.312c1.151,0.375,2.208,0.937,3.172,1.687c3.078,2.292,3.536,5.198,3.766,6.651l-11.343,0.656
		c-0.141-0.375-0.229-0.75-0.417-1.078c-0.734-1.265-2.385-2.015-5.328-2.015c-0.182,0-2.984-0.047-4.364,1.125
		c-0.641,0.516-0.734,1.265-0.734,1.593c0,0.375,0.094,0.984,0.734,1.5c1.609,1.312,7.349,2.109,13.14,3.474
		c3.718,0.891,5.463,1.875,6.703,3.234c0.828,0.844,2.162,2.578,2.162,5.672c0,2.25-0.781,4.547-2.162,6.281
		c-2.708,3.463-7.578,5.385-16.442,5.385c-7.624,0-11.942-1.828-14.333-4.588c-2.203-2.484-2.432-5.062-2.62-6.281l11.437-0.281
		c0.094,0.562,0.323,1.453,1.474,2.297c1.099,0.844,2.708,1.453,5.739,1.453c1.198,0,2.667-0.14,3.766-0.703
		c0.969-0.516,1.838-1.453,1.838-2.625C286.223,39.44,285.906,38.456,284.385,37.8z M265.597,94.847
		c2.76-1.927,6.708-3.609,13.968-3.698c1.469,0,2.89,0,4.364,0.141c8.588,0.698,12.583,4.166,14.838,7.442
		c1.052,1.599,2.937,5.021,2.937,10.036c0,2.953-0.599,9.614-7.166,14.155c-1.698,1.172-3.354,1.969-5.281,2.531
		c-1.885,0.562-4.734,1.12-9.328,1.12c-6.89,0-11.067-1.541-13.687-3.135c-0.875-0.516-2.479-1.593-4.088-3.562
		c-3.448-4.265-3.583-8.577-3.583-10.687C258.572,100.847,262.936,96.675,265.597,94.847z M300.231,442.273h-10.203l0.099-4.125
		v-14.27h-7.578l0.099-2.063v-3.796l-0.099-2.063h7.578v-8.083l-0.099-4.125h10.203l-0.099,4.125v30.274L300.231,442.273z
		 M297.856,452.173c0,4.416-6.463,6.724-18.843,6.724s-18.848-2.307-18.848-6.724c0-4.703,6.468-7.135,18.848-7.135
		S297.856,447.47,297.856,452.173z M274.603,155.15c2.021,1.875,4.823,1.875,5.604,1.875c0.646,0,3.536-0.047,5.469-1.734
		c0.823-0.75,1.239-1.641,1.375-1.969c0.693-1.5,0.734-3,0.734-4.593v-18.603h11.578v17.337c0,4.5,0.135,9.187-3.443,12.609
		c-2.807,2.677-7.489,4.307-15.713,4.307c-0.781,0-3.906,0-6.749-0.37c-1.104-0.141-7.765-0.932-10.796-5.624
		c-1.792-2.765-1.703-5.953-1.703-7.031v-21.228h11.578v18.791C272.536,151.307,272.718,153.416,274.603,155.15z M267.118,167.881
		h11.666v25.03h16.582v8.057h-28.248V167.881z M226.352,37.8c-0.776-0.328-2.708-0.703-4.958-1.125
		c-2.526-0.516-5.099-0.938-7.624-1.641c-2.755-0.797-5.286-1.781-6.937-4.359c-1.193-1.88-1.286-3.755-1.286-4.599
		c0-1.781,0.505-3.422,1.422-4.875c2.114-3.464,6.619-5.76,14.931-5.76c2.849,0,7.395,0.375,10.104,1.312
		c1.151,0.375,2.208,0.937,3.172,1.687c3.078,2.292,3.536,5.198,3.766,6.651l-11.343,0.656c-0.14-0.375-0.229-0.75-0.417-1.078
		c-0.734-1.265-2.385-2.015-5.328-2.015c-0.182,0-2.984-0.047-4.364,1.125c-0.641,0.516-0.734,1.265-0.734,1.593
		c0,0.375,0.094,0.984,0.734,1.5c1.609,1.312,7.349,2.109,13.14,3.474c3.718,0.891,5.463,1.875,6.703,3.234
		c0.828,0.844,2.161,2.578,2.161,5.672c0,2.25-0.781,4.547-2.161,6.281c-2.708,3.463-7.578,5.385-16.442,5.385
		c-7.625,0-11.942-1.828-14.333-4.588c-2.203-2.484-2.432-5.062-2.62-6.281l11.437-0.281c0.094,0.562,0.323,1.453,1.474,2.297
		c1.099,0.844,2.708,1.453,5.739,1.453c1.198,0,2.666-0.14,3.765-0.703c0.969-0.516,1.839-1.453,1.839-2.625
		C228.191,39.44,227.873,38.456,226.352,37.8z M202.926,54.61h11.578v18.791c0,2.39,0.182,4.499,2.067,6.234
		c2.021,1.875,4.823,1.875,5.604,1.875c0.646,0,3.536-0.047,5.468-1.734c0.823-0.75,1.24-1.641,1.375-1.969
		c0.693-1.5,0.734-3,0.734-4.593V54.61h11.578v17.337c0,4.5,0.135,9.187-3.443,12.609c-2.807,2.677-7.489,4.307-15.713,4.307
		c-0.781,0-3.906,0-6.749-0.37c-1.104-0.14-7.765-0.932-10.796-5.624c-1.792-2.765-1.703-5.953-1.703-7.031V54.61z M239.977,130.123
		v7.401h-22.603v5.442h20.9v7.447h-20.9v5.302h23.014v7.494h-34.633v-33.087H239.977z M211.382,125.451v-7.823h2.661
		c1.057,0,2.39,0.047,3.219-0.844c0.687-0.703,0.781-1.641,0.781-2.578V92.365h11.666v22.686c0,1.125,0.182,5.015-2.573,7.729
		c-2.479,2.437-5.88,2.672-9.093,2.672H211.382z M207.565,170.363c2.76-1.927,6.708-3.609,13.968-3.698c1.469,0,2.89,0,4.364,0.141
		c8.588,0.698,12.583,4.166,14.838,7.442c1.052,1.599,2.937,5.021,2.937,10.036c0,2.953-0.599,9.614-7.166,14.155
		c-1.698,1.172-3.354,1.969-5.281,2.531c-1.885,0.562-4.734,1.12-9.327,1.12c-6.89,0-11.067-1.541-13.687-3.135
		c-0.875-0.516-2.479-1.593-4.088-3.562c-3.448-4.265-3.583-8.577-3.583-10.687C200.54,176.363,204.904,172.191,207.565,170.363z
		 M240.434,205.639v33.087h-9.645l-15.389-17.712v17.712h-11.484v-33.087h9.598l15.483,17.437v-17.437H240.434z M204.812,248.548
		c3.031-3.323,8.312-6.65,18.145-6.65c1.193,0,7.718,0.094,12.447,2.437c1.744,0.891,2.802,1.823,3.354,2.385
		c0.828,0.75,1.609,1.641,2.156,2.578c0.37,0.563,0.828,1.688,0.828,1.688l-11.484,1.265c-1.104-1.219-3.125-2.906-7.119-2.906
		c-1.011,0-3.948,0.047-6.521,1.922c-1.474,1.078-4.182,3.802-4.182,8.77c0,1.026,0.094,4.12,2.162,6.557
		c1.88,2.302,5.005,3.333,7.9,3.333c5.234,0,8.359-3,9.187-4.88c0.042-0.094,0.135-0.516,0.229-0.891h-8.453v-7.494h19.337v19.822
		h-10.062v-3.651c-0.734,0.703-1.239,1.218-2.937,2.151c-2.114,1.172-5.281,2.484-10.796,2.484c-2.068,0-7.718-0.141-12.63-4.026
		c-1.792-1.406-2.802-2.765-3.26-3.516c-1.016-1.5-2.62-4.833-2.62-9.562C200.495,258.162,200.771,253.053,204.812,248.548z
		 M216.078,404.369h9.802c0.453,5.114,7.932,9.484,16.525,10.515l-4.651,6.932c-6.822-1.156-13.291-3.302-16.775-7.713
		c-3.484,4.411-9.952,6.557-16.775,7.713l-4.651-6.932C208.146,413.852,215.625,409.483,216.078,404.369z M180.242,67.45v7.447
		h-20.9v5.302h23.014v7.494h-34.633V54.607h34.222v7.401h-22.603v5.442H180.242z M168.32,37.8c-0.776-0.328-2.708-0.703-4.958-1.125
		c-2.526-0.516-5.099-0.938-7.625-1.641c-2.755-0.797-5.281-1.781-6.937-4.359c-1.193-1.88-1.286-3.755-1.286-4.599
		c0-1.781,0.505-3.422,1.422-4.875c2.114-3.464,6.619-5.76,14.931-5.76c2.849,0,7.395,0.375,10.104,1.312
		c1.151,0.375,2.208,0.937,3.172,1.687c3.078,2.292,3.536,5.198,3.765,6.651l-11.343,0.656c-0.14-0.375-0.229-0.75-0.417-1.078
		c-0.734-1.265-2.385-2.015-5.328-2.015c-0.182,0-2.984-0.047-4.364,1.125c-0.641,0.516-0.735,1.265-0.735,1.593
		c0,0.375,0.094,0.984,0.735,1.5c1.609,1.312,7.348,2.109,13.14,3.474c3.719,0.891,5.463,1.875,6.703,3.234
		c0.828,0.844,2.161,2.578,2.161,5.672c0,2.25-0.781,4.547-2.161,6.281c-2.708,3.463-7.578,5.385-16.442,5.385
		c-7.624,0-11.942-1.828-14.332-4.588c-2.203-2.484-2.432-5.062-2.62-6.281l11.442-0.281c0.089,0.562,0.318,1.453,1.469,2.297
		c1.099,0.844,2.708,1.453,5.74,1.453c1.198,0,2.666-0.14,3.765-0.703c0.969-0.516,1.839-1.453,1.839-2.625
		C170.159,39.44,169.841,38.456,168.32,37.8z M144.894,92.368h11.578v18.791c0,2.39,0.182,4.499,2.067,6.234
		c2.021,1.875,4.823,1.875,5.604,1.875c0.646,0,3.536-0.047,5.468-1.734c0.823-0.75,1.239-1.641,1.375-1.969
		c0.693-1.5,0.734-3,0.734-4.593V92.368h11.578v17.337c0,4.5,0.135,9.187-3.443,12.609c-2.807,2.677-7.489,4.307-15.712,4.307
		c-0.781,0-3.906,0-6.75-0.37c-1.104-0.141-7.765-0.932-10.796-5.624c-1.792-2.765-1.703-5.953-1.703-7.031V92.368z
		 M182.402,130.123v33.087h-9.645l-15.39-17.712v17.712h-11.484v-33.087h9.598l15.484,17.437v-17.437H182.402z M146.781,173.032
		c3.031-3.323,8.312-6.651,18.144-6.651c1.193,0,7.719,0.094,12.447,2.437c1.745,0.891,2.802,1.823,3.354,2.385
		c0.828,0.75,1.609,1.641,2.156,2.578c0.37,0.563,0.828,1.688,0.828,1.688l-11.484,1.265c-1.104-1.219-3.125-2.906-7.119-2.906
		c-1.011,0-3.948,0.047-6.521,1.922c-1.474,1.078-4.182,3.802-4.182,8.77c0,1.026,0.094,4.12,2.161,6.557
		c1.88,2.302,5.005,3.333,7.901,3.333c5.234,0,8.359-3,9.187-4.88c0.042-0.094,0.135-0.516,0.229-0.891h-8.453v-7.494h19.337v19.822
		h-10.062v-3.651c-0.735,0.703-1.24,1.218-2.937,2.151c-2.114,1.172-5.281,2.484-10.796,2.484c-2.067,0-7.718-0.14-12.629-4.026
		c-1.792-1.406-2.802-2.765-3.26-3.516c-1.015-1.5-2.62-4.833-2.62-9.562C142.463,182.646,142.739,177.537,146.781,173.032z
		 M156.933,263.781v12.702h-11.671v-33.087h11.718v12.046h14.145v-12.046h11.76v33.087h-11.76v-12.702H156.933z M172.133,238.726
		l-1.745-5.39h-12.4l-1.745,5.39h-12.77l14.01-33.087h13.228l14.057,33.087H172.133z M158.047,404.371h9.801
		c0.453,4.578,8.437,7.63,16.775,8.249l-4.494,6.598c-6.822-0.948-13.697-2.974-17.181-6.849
		c-3.484,3.875-10.359,5.901-17.181,6.849l-4.494-6.598C149.609,412.001,157.593,408.949,158.047,404.371z M95.317,42.113h2.661
		c1.057,0,2.391,0.047,3.219-0.844c0.687-0.703,0.781-1.641,0.781-2.578V16.849h11.666v22.686c0,1.125,0.182,5.015-2.573,7.729
		c-2.479,2.437-5.88,2.672-9.093,2.672h-6.661V42.113z M111.873,54.609v33.087h-11.619V54.609H111.873z M87.851,92.365h9.598
		l15.483,17.437V92.365h11.437v33.087h-9.646l-15.389-17.712v17.712H87.851V92.365z M113.644,130.123v22.686
		c0,1.125,0.182,5.015-2.573,7.729c-2.479,2.437-5.88,2.672-9.093,2.672h-6.661v-7.822h2.661c1.057,0,2.391,0.047,3.219-0.844
		c0.687-0.703,0.781-1.641,0.781-2.578v-21.843H113.644z M83.54,412.244l0.104-2.062v-2.802l-0.104-2.062h28.248l-0.104,2.062v2.802
		l0.104,2.146l-8.942-0.042c0.958,3.797,3.786,6.849,8.182,8.291c0.86,0.291,1.823,0.536,2.578,0.62l-4.396,7.093
		c-5.406-1.234-9.598-3.916-11.421-7.177c-1.718,3.302-6.062,6.062-11.723,7.385l-4.396-7.302c0.708-0.083,1.567-0.245,2.427-0.495
		c4.5-1.359,7.531-4.375,8.489-8.416L83.54,412.244z M122.21,218.482v7.447h-20.9v5.302h23.014v7.494H89.691v-33.087h34.222v7.401
		H101.31v5.442H122.21z M124.922,432.045h-10.458l0.099-4.125v-19.962l-0.099-4.208h10.458l-0.099,4.208v19.962L124.922,432.045z
		 M30.762,23.405c2.849-4.166,8.083-7.963,18.879-7.963c8.817,0,13.827,2.344,16.535,5.385c1.792,1.969,2.479,4.172,2.755,5.062
		l-10.749,1.922c-0.318-0.656-0.505-1.031-0.963-1.641c-1.745-2.297-4.641-3.234-7.349-3.187c-1.104,0-4.776,0.234-7.349,3
		c-1.792,1.969-2.526,4.739-2.526,7.364c0,3.515,1.239,5.625,2.109,6.75c2.531,3.375,5.974,3.469,7.442,3.469
		c4.317,0,6.89-2.203,7.9-3.562c0.37-0.516,0.599-0.891,1.011-1.969l11.072,1.172c-0.37,1.219-1.239,3.937-3.677,6.468
		c-4.177,4.307-10.932,5.385-16.582,5.385c-6.109,0-9.598-1.172-12.03-2.344c-3.219-1.541-9.421-5.619-9.421-15.322
		C27.82,31.66,28.054,27.389,30.762,23.405z M40.869,74.991v12.702H29.198V54.607h11.718v12.046h14.145V54.607h11.76v33.087h-11.76
		V74.991H40.869z M33.469,94.847c2.76-1.927,6.708-3.609,13.968-3.698c1.469,0,2.89,0,4.364,0.141
		c8.588,0.698,12.583,4.166,14.838,7.442c1.052,1.599,2.937,5.021,2.937,10.036c0,2.953-0.599,9.614-7.166,14.155
		c-1.698,1.172-3.354,1.969-5.281,2.531c-1.885,0.562-4.734,1.12-9.328,1.12c-6.89,0-11.067-1.541-13.687-3.135
		c-0.875-0.516-2.479-1.593-4.088-3.562c-3.448-4.265-3.583-8.577-3.583-10.687C26.443,100.847,30.807,96.675,33.469,94.847z
		 M33.469,132.605c2.76-1.927,6.708-3.609,13.968-3.698c1.469,0,2.89,0,4.364,0.141c8.588,0.698,12.583,4.166,14.838,7.442
		c1.052,1.599,2.937,5.021,2.937,10.036c0,2.953-0.599,9.614-7.166,14.155c-1.698,1.172-3.354,1.969-5.281,2.531
		c-1.885,0.562-4.734,1.12-9.328,1.12c-6.89,0-11.067-1.541-13.687-3.135c-0.875-0.516-2.479-1.593-4.088-3.562
		c-3.448-4.265-3.583-8.577-3.583-10.687C26.443,138.605,30.807,134.433,33.469,132.605z M66.338,167.881v33.087h-9.645
		l-15.39-17.712v17.712H29.819v-33.087h9.598l15.484,17.437v-17.437H66.338z M30.716,210.79c3.031-3.323,8.312-6.651,18.145-6.651
		c1.193,0,7.718,0.094,12.447,2.437c1.744,0.891,2.802,1.823,3.354,2.385c0.828,0.75,1.609,1.641,2.156,2.578
		c0.37,0.563,0.828,1.688,0.828,1.688l-11.484,1.265c-1.104-1.219-3.125-2.906-7.119-2.906c-1.01,0-3.948,0.047-6.52,1.922
		c-1.474,1.078-4.182,3.802-4.182,8.77c0,1.026,0.094,4.12,2.162,6.557c1.88,2.302,5.005,3.333,7.9,3.333
		c5.234,0,8.359-3,9.187-4.88c0.042-0.094,0.135-0.516,0.229-0.891h-8.453v-7.494h19.337v19.822H58.641v-3.651
		c-0.734,0.703-1.239,1.218-2.937,2.151c-2.114,1.172-5.281,2.484-10.797,2.484c-2.067,0-7.718-0.141-12.629-4.026
		c-1.792-1.406-2.802-2.765-3.26-3.516c-1.016-1.5-2.62-4.833-2.62-9.562C26.398,220.404,26.674,215.295,30.716,210.79z
		 M30.716,248.548c3.031-3.323,8.312-6.65,18.145-6.65c1.193,0,7.718,0.094,12.447,2.437c1.744,0.891,2.802,1.823,3.354,2.385
		c0.828,0.75,1.609,1.641,2.156,2.578c0.37,0.563,0.828,1.688,0.828,1.688l-11.484,1.265c-1.104-1.219-3.125-2.906-7.119-2.906
		c-1.01,0-3.948,0.047-6.52,1.922c-1.474,1.078-4.182,3.802-4.182,8.77c0,1.026,0.094,4.12,2.162,6.557
		c1.88,2.302,5.005,3.333,7.9,3.333c5.234,0,8.359-3,9.187-4.88c0.042-0.094,0.135-0.516,0.229-0.891h-8.453v-7.494h19.337v19.822
		H58.641v-3.651c-0.734,0.703-1.239,1.218-2.937,2.151c-2.114,1.172-5.281,2.484-10.797,2.484c-2.067,0-7.718-0.141-12.629-4.026
		c-1.792-1.406-2.802-2.765-3.26-3.516c-1.016-1.5-2.62-4.833-2.62-9.562C26.398,258.162,26.674,253.053,30.716,248.548z
		 M63.791,348.862c-2.807,2.677-7.489,4.307-15.712,4.307c-0.781,0-3.906,0-6.75-0.37c-1.104-0.141-7.765-0.932-10.796-5.624
		c-1.792-2.766-1.703-5.953-1.703-7.031v-21.228h11.578v18.791c0,2.39,0.182,4.499,2.067,6.234c2.021,1.875,4.823,1.875,5.604,1.875
		c0.646,0,3.536-0.047,5.468-1.734c0.823-0.75,1.239-1.641,1.375-1.969c0.693-1.5,0.734-3,0.734-4.593v-18.603h11.578v17.337
		C67.234,340.753,67.369,345.441,63.791,348.862z M66.338,356.671v33.087h-9.645l-15.39-17.712v17.712H29.819v-33.087h9.598
		l15.484,17.437v-17.437H66.338z M64.177,293.998v7.447h-20.9v5.302h23.014v7.494H31.659v-33.087H65.88v7.401H43.277v5.442H64.177z
		 M39.659,412.12H27.478l0.104-2.062v-1.568l-0.104-2.062h14.353v-0.739l-0.151-1.734h10.406l-0.151,1.734v0.739h14.353
		l-0.104,2.062v1.568l0.104,2.062H54.106c2.833,1.943,8.088,2.479,13.947,2.89l-4.396,6.104c-7.932-0.865-14.65-2.969-16.775-5.322
		c-2.12,2.354-8.843,4.458-16.775,5.322l-4.396-6.104C31.571,414.599,36.826,414.063,39.659,412.12z M66.485,483.111H28.238
		l0.099-4.125v-4.953l-0.099-4.125H39.05l-0.099,4.125v2.271h27.535l-0.099,2.063v2.682L66.485,483.111z M69.621,467.065H24.144
		l0.104-2.062v-2.682l-0.104-2.062h29.508c0.558-2.146,1.162-5.895,1.365-7.385H28.238l0.099-2.062v-2.885l-0.099-2.062h38.201
		c0,0.578-0.354,3.588-0.458,4.125c-0.401,2.765-1.109,6.807-2.021,10.27h5.661l-0.099,2.062v2.682L69.621,467.065z M69.621,427.838
		H51.887v1.651c8.739,0.536,14.046,2.557,14.046,6.849c0,4.203-5.052,6.968-18.999,6.968c-13.999,0-19.051-2.765-19.051-6.968
		c0-4.292,5.307-6.312,14.046-6.849v-1.651H24.144l0.104-2.062v-1.854l-0.104-2.062h45.476l-0.099,2.062v1.854L69.621,427.838z
		 M101.377,479.271c-3.786-2.39-6.416-5.401-7.729-8.864c-1.114,3.422-3.943,6.598-8.239,9.239l-3.739-7.51
		c0.708-0.328,1.516-0.99,2.375-1.895c3.187-3.344,4.854-8.416,5.255-15.754h-6.515l0.099-2.062v-3.218l-0.099-2.062h21.171
		l-0.099,2.062v3.218l0.099,2.062H97.94c0.458,7.296,2.224,12.166,5.156,15.468c0.807,0.906,1.667,1.563,2.427,2.021
		L101.377,479.271z M126.136,483.932h-9.348l0.104-4.125v-11.999h-2.328v10.765l0.104,4.125h-8.843l0.099-4.125v-29.248
		l-0.099-4.125h8.843l-0.104,4.125v10.562h2.328v-10.765l-0.104-4.125h9.348l-0.099,4.125v30.686L126.136,483.932z M126.391,442.273
		H86.774l0.104-4.125v-4.536l-0.104-4.125h10.713l-0.099,4.125v1.031h29.003l-0.104,2.062v3.505L126.391,442.273z M114.106,200.968
		l-1.75-5.39h-12.4l-1.745,5.39h-12.77l14.009-33.087h13.229l14.056,33.087H114.106z M140.209,420.25h45.476l-0.099,2.063v2.265
		l0.099,2.062h-45.476l0.099-2.062v-2.265L140.209,420.25z M181.998,435.676c0,4.619-5.057,7.63-19.051,7.63
		c-13.994,0-19.051-3.01-19.051-7.63c0-5.489,7.38-7.63,19.051-7.63C174.618,428.046,181.998,430.187,181.998,435.676z
		 M154.104,479.523c-8.64,0-13.135-5.609-13.135-16.416c0-10.812,4.495-16.421,13.135-16.421c8.64,0,13.14,5.609,13.14,16.421
		C167.244,473.913,162.744,479.523,154.104,479.523z M186.696,467.19h-5.156v12.208l0.104,4.125h-10.208l0.099-4.125v-30.274
		l-0.099-4.125h10.208l-0.104,4.125v10.145h5.156l-0.099,2.062v3.797L186.696,467.19z M197.736,461.001
		c0.76-0.125,1.667-0.286,2.375-0.495c4.396-1.239,7.38-3.88,8.39-7.426h-8.541l0.099-2.062v-2.802l-0.099-2.062h26.983
		l-0.104,2.062v2.802l0.052,1.484h4.448v-3.38l-0.099-4.125h10.202l-0.099,4.125v14.353l0.099,4.125h-10.202l0.099-4.125v-4.083
		h-4.953l0.104-2.062v-2.765l-0.052-1.484h-7.932c1.011,3.177,3.687,5.609,7.63,6.765c0.656,0.209,1.614,0.412,2.526,0.537
		l-4.094,6.89c-5.156-1.073-9.249-3.427-10.968-6.354c-1.713,3.302-5.958,6.062-11.52,7.385L197.736,461.001z M222.343,484.551
		c-14.754,0-20.108-3.297-20.108-8.291c0-6.021,7.781-8.328,20.108-8.328c12.327,0,20.108,2.307,20.108,8.328
		C242.452,481.255,237.098,484.551,222.343,484.551z M243.717,431.096h-17.634v7.052l0.099,4.125h-10.406l0.099-4.125v-7.052
		h-17.634l0.099-2.062v-3.135l-0.099-2.063h45.476l-0.099,2.063v3.135L243.717,431.096z M259.759,428.044
		c4.296-3.755,6.416-10.354,6.416-19.139c0-1.031-0.047-2.104-0.099-3.302h10.307c-0.099,1.198-0.099,2.271-0.099,3.302
		c0,8.416,2.271,14.848,6.567,18.811c1.161,1.067,2.526,1.895,3.792,2.515l-4.703,7.505c-4.848-2.104-8.739-5.692-10.661-9.9
		c-2.021,4.375-5.963,8.13-10.812,10.27l-4.698-7.505C257.082,429.982,258.598,429.076,259.759,428.044z M301.746,465.334h-17.733
		v1.073h13.593l-0.104,4.125v2.516l0.104,4.125h-27.238v1.318h28.55l-0.099,2.062v1.323l0.099,2.062h-38.555l0.104-4.125v-2.932
		l-0.104-4.167h27.743v-1.276h-27.743l0.104-2.062v-0.906l-0.104-2.062h13.697v-1.073h-17.785l0.099-2.062v-1.448l-0.099-2.062
		h45.471l-0.099,2.062v1.448L301.746,465.334z M315.972,418.309c5.156-2.474,7.833-6.437,7.833-11.551
		c0-0.536-0.052-1.276-0.099-2.062h10.609c-0.052,0.828-0.099,1.609-0.099,2.062c0,4.828,2.474,8.5,7.224,10.687
		c0.807,0.37,1.771,0.698,2.781,0.99l-4.094,7.505c-5.307-1.651-9.296-4.495-11.015-7.63c-1.87,3.547-5.911,6.64-11.218,8.458
		l-4.599-7.51C314.154,419.09,315.113,418.72,315.972,418.309z M315.066,456.176c0-6.27,5.557-10.437,13.895-10.437
		c8.385,0,13.942,4.166,13.942,10.437c0,6.265-5.557,10.432-13.942,10.432C320.623,466.608,315.066,462.442,315.066,456.176z
		 M357,484.138h-10.207l0.104-4.125v-4.411h-27.941l0.099-2.063v-2.682l-0.099-2.062H357l-0.099,4.125v7.093L357,484.138z
		 M357,467.598h-10.207l0.104-4.125V449.12l-0.104-4.125H357l-0.099,4.125v14.353L357,467.598z M337.398,443.307
		c-14.4,0-19.608-3.302-19.608-8.291c0-6.026,7.583-8.333,19.608-8.333c12.025,0,19.603,2.307,19.603,8.333
		C357,440.006,351.798,443.307,337.398,443.307z M360.537,419.382h-5.104v2.724l0.104,4.125h-10.208l0.099-4.125v-14.233
		l-0.099-4.125h10.208l-0.104,4.125v4.25h5.104l-0.099,2.062v3.135L360.537,419.382z M417.813,473.788h-17.634v5.609l0.099,4.125
		h-10.406l0.099-4.125v-5.609h-17.634l0.099-2.062v-2.724l-0.099-2.062h45.476l-0.104,2.062v2.724L417.813,473.788z
		 M430.877,447.966h8.739v-0.62l-0.151-2.062h10.562l-0.151,2.062v0.62h8.739l-0.099,2.063v1.979l0.099,2.063h-27.738l0.099-2.063
		v-1.979L430.877,447.966z M434.059,435.676c0-5.484,7.375-7.63,19.046-7.63c11.676,0,19.051,2.146,19.051,7.63
		c0,4.62-5.052,7.63-19.051,7.63C439.111,443.306,434.059,440.295,434.059,435.676z M431.58,461.7c0-4.245,4.906-6.765,13.14-6.765
		c8.286,0,13.187,2.521,13.187,6.765c0,4.208-4.901,6.724-13.187,6.724C436.486,468.424,431.58,465.908,431.58,461.7z
		 M473.573,484.142h-10.208l0.099-4.125v-3.177h-28.342l0.099-2.062v-2.682l-0.099-2.063h38.451l-0.104,4.125v5.859L473.573,484.142
		z M473.573,468.632h-9.953l0.047-1.239h-4.193l0.099-2.062v-2.76l-0.099-2.062h4.245v-1.364h-4.245l0.099-2.063v-2.76l-0.099-2.062
		h4.245v-3.135l-0.099-4.125h9.953l-0.104,4.125v15.384L473.573,468.632z M475.843,427.057h-45.471l0.099-2.062v-2.271l-0.099-2.062
		h17.785v-1.651H434.46l0.104-4.125v-6.145l-0.104-4.125h37.242l-0.104,2.062v2.021l0.104,2.062h-26.53v2.062h26.779l-0.099,2.062
		v2.062l0.099,2.062H458.11v1.651h17.733l-0.099,2.062v2.271L475.843,427.057z"/>
	<path style="fill:#FF0000;" d="M461.54,38.267c1.01-2.109,1.052-3.89,1.052-4.781c0-1.031-0.135-4.734-2.984-6.984
		c-2.432-1.88-5.88-1.786-6.661-1.786h-5.557v17.728h5.927c0.641,0,1.333-0.047,2.021-0.14
		C459.332,41.788,460.759,39.955,461.54,38.267z"/>
	<path style="fill:#FF0000;" d="M403.32,29.27c0.599-0.75,0.646-1.5,0.646-1.875c0-0.281-0.047-1.036-0.505-1.693
		c-0.781-1.172-2.068-1.359-3.307-1.359h-9.645v6.099h8.723C401.44,30.442,402.586,30.16,403.32,29.27z"/>
</g>
</svg>
